<?xml version="1.0" standalone="no"?>
<!DOCTYPE svg PUBLIC "-//W3C//DTD SVG 20010904//EN"
 "http://www.w3.org/TR/2001/REC-SVG-20010904/DTD/svg10.dtd">
<svg version="1.0" xmlns="http://www.w3.org/2000/svg"
 width="300.000000pt" height="200.000000pt" viewBox="0 0 300.000000 200.000000"
 preserveAspectRatio="xMidYMid meet">
<metadata>
Created by potrace 1.16, written by Peter Selinger 2001-2019
</metadata>
<g transform="translate(0.000000,200.000000) scale(0.100000,-0.100000)"
fill="#000000" stroke="none">
<path d="M819 1876 c-2 -3 -37 -12 -76 -20 -78 -16 -96 -25 -192 -99 -60 -47
-167 -152 -184 -183 -5 -8 -3 -30 3 -50 11 -34 10 -38 -18 -67 -16 -18 -42
-47 -57 -64 -16 -19 -38 -33 -51 -33 -15 0 -39 -19 -73 -61 -49 -58 -50 -62
-37 -87 17 -33 62 -75 96 -91 24 -12 24 -12 5 4 -11 9 -27 20 -35 26 -12 7 -5
18 36 58 l51 50 -33 32 c-39 38 -42 49 -15 49 22 0 68 -57 63 -78 -2 -7 7 -21
20 -32 l23 -18 -27 -29 c-16 -16 -28 -33 -28 -39 1 -5 16 9 34 30 20 23 38 36
45 32 7 -5 -5 -26 -36 -63 -30 -35 -40 -52 -26 -45 32 17 103 104 103 127 1
11 24 46 53 78 l52 58 47 -20 c25 -11 49 -17 52 -14 3 4 6 1 6 -5 0 -6 13 -13
29 -17 28 -6 84 -51 208 -169 l62 -59 -24 -19 c-31 -24 -35 -86 -7 -111 27
-24 96 -22 120 3 18 20 19 19 108 -75 49 -52 89 -101 89 -107 0 -7 -15 -14
-35 -16 -46 -5 -68 -26 -72 -70 -2 -19 -9 -37 -15 -40 -9 -3 -13 12 -13 52 l0
56 -59 0 -58 0 -7 -50 c-4 -27 -11 -52 -16 -55 -6 -3 -10 -19 -10 -36 0 -24 4
-29 25 -29 16 0 25 6 25 15 0 11 11 15 36 15 26 0 35 -4 32 -15 -3 -12 -205
-225 -214 -225 -2 0 -4 25 -4 55 0 54 0 55 -30 55 -29 0 -30 -2 -30 -46 0 -41
-2 -45 -22 -42 -19 2 -24 10 -26 46 -3 39 -5 42 -33 42 -28 0 -29 -2 -29 -46
0 -68 12 -84 65 -84 43 0 45 -1 45 -30 0 -19 5 -30 14 -30 8 0 17 -8 20 -18 8
-25 86 -98 114 -107 19 -6 37 8 117 86 87 85 95 90 95 66 0 -22 5 -27 25 -27
23 0 25 3 25 53 l1 52 102 108 102 108 60 -60 59 -61 -36 0 c-20 0 -46 -8 -59
-19 -21 -17 -24 -28 -24 -84 0 -78 13 -97 67 -97 54 0 76 14 84 55 9 52 -15
85 -63 85 -22 0 -33 4 -27 9 15 14 91 20 103 8 6 -6 11 -44 11 -84 0 -70 1
-73 24 -73 16 0 31 11 45 32 l21 33 0 -32 c0 -30 3 -33 33 -33 26 0 44 -13
102 -70 38 -39 77 -70 86 -70 21 0 110 79 128 114 8 14 20 26 28 26 7 0 13 11
13 26 0 20 -4 24 -18 20 -12 -4 -27 3 -42 19 -20 21 -21 25 -6 31 9 3 27 3 41
0 22 -6 25 -3 25 19 0 23 -3 25 -48 25 -26 0 -52 -4 -57 -9 -6 -6 -48 28 -112
90 -101 97 -102 99 -70 99 50 0 57 10 53 71 -2 30 -5 57 -5 62 -1 4 -30 7 -65
7 l-65 0 -3 -47 -4 -48 -19 43 c-14 33 -25 45 -47 49 -59 12 -56 27 33 124 57
62 85 86 87 75 3 -12 16 -16 61 -16 61 0 81 11 81 46 0 27 -17 41 -55 46 -29
3 -28 5 75 107 117 114 187 176 204 176 6 0 39 15 73 33 34 17 70 32 79 32 22
0 154 -119 148 -134 -6 -16 33 -64 86 -106 38 -30 40 -31 70 -15 32 17 38 24
17 21 -14 -1 -117 89 -117 102 0 4 12 15 25 25 24 17 25 17 74 -27 27 -24 55
-46 63 -48 11 -4 11 -8 -1 -24 -8 -10 9 4 38 33 28 28 51 60 51 71 0 26 -115
126 -139 119 -11 -3 -43 19 -94 67 -64 59 -78 77 -80 106 -3 28 -16 47 -58 87
-96 90 -153 134 -219 168 -122 62 -177 67 -419 41 -30 -3 -56 -8 -59 -10 -2
-3 0 -17 5 -33 11 -32 49 -46 153 -57 111 -12 220 -51 220 -79 0 -7 -22 -49
-50 -94 -27 -45 -50 -89 -50 -99 0 -22 -62 -94 -248 -291 -127 -134 -146 -150
-159 -138 -21 22 -96 19 -116 -3 -22 -24 -22 -80 1 -106 16 -20 16 -20 -3 -6
-51 39 -65 55 -65 77 0 18 6 23 25 23 16 0 25 6 25 15 0 12 -14 15 -66 15
l-67 0 -105 103 c-58 56 -111 107 -117 112 -70 66 -164 176 -159 188 3 8 -15
46 -40 85 -54 83 -58 112 -17 142 34 24 87 47 122 53 26 5 89 21 152 39 39 12
47 25 22 34 -8 4 -15 13 -15 20 0 8 -12 19 -26 24 -25 10 -206 14 -215 6z
m1486 -415 c-5 -11 15 -36 67 -83 61 -56 71 -70 62 -84 -27 -44 -39 -40 -120
33 -64 58 -82 69 -99 63 -11 -5 -38 -16 -60 -25 -40 -17 -40 -17 -20 3 11 11
49 45 84 76 51 43 68 53 78 44 8 -6 11 -18 8 -27z m-1853 -30 c-10 -6 -6 -15
19 -34 l32 -25 -58 -66 c-32 -36 -62 -66 -67 -66 -13 0 -9 17 7 30 9 7 34 36
57 64 28 36 21 30 -25 -19 -64 -70 -65 -70 -86 -51 l-21 19 60 67 c33 37 60
74 60 82 0 21 12 30 24 18 8 -8 7 -13 -2 -19z m458 -170 c0 -5 -8 -15 -17 -21
-12 -7 -13 -10 -3 -7 8 2 24 -3 35 -12 20 -16 20 -16 1 7 -33 39 -3 24 40 -20
22 -24 47 -47 55 -53 8 -5 38 -29 66 -53 52 -43 53 -44 35 -67 -19 -27 -37
-33 -28 -10 8 23 -4 45 -26 45 -22 0 -98 58 -98 75 0 12 -39 52 -46 47 -2 -1
-18 8 -34 20 -25 18 -28 23 -15 31 14 7 13 12 -5 37 -12 16 -24 29 -28 29 -21
-3 -52 19 -92 65 -24 28 -38 45 -30 39 20 -18 29 -16 25 6 -2 12 30 -13 81
-64 46 -46 84 -88 84 -94z m1099 145 c10 -11 -20 -46 -159 -183 -94 -92 -175
-169 -179 -171 -5 -2 -11 4 -14 13 -5 10 45 68 160 185 91 94 169 170 173 170
4 0 13 -6 19 -14z m-795 -402 c9 -3 16 -12 16 -20 0 -8 5 -14 10 -14 6 0 10
-7 10 -15 0 -9 11 -20 25 -25 13 -5 48 -31 76 -57 28 -26 55 -47 61 -45 5 1 7
-2 3 -7 -3 -6 11 -29 32 -51 30 -34 37 -50 38 -85 0 -42 0 -43 -17 -28 -11 10
-18 30 -18 55 0 35 -2 38 -29 38 -16 0 -31 -6 -34 -12 -3 -9 -15 -3 -35 16
-17 16 -29 32 -27 36 6 10 -52 63 -63 57 -5 -4 -28 14 -52 38 -24 25 -39 45
-32 45 7 0 12 15 12 40 0 43 0 43 24 34z"/>
<path d="M415 1096 c-35 -35 -35 -107 0 -142 22 -21 33 -25 78 -22 48 3 52 5
55 31 3 26 -11 37 -23 17 -9 -14 -48 -13 -63 2 -7 7 -12 26 -12 43 0 17 5 36
12 43 15 15 54 16 63 2 12 -20 26 -9 23 18 -3 25 -7 27 -55 30 -45 3 -56 -1
-78 -22z"/>
<path d="M710 975 c0 -95 0 -95 25 -95 20 0 25 5 25 25 0 22 4 25 34 25 40 0
66 28 66 70 0 14 -7 36 -16 48 -13 19 -24 22 -75 22 l-59 0 0 -95z"/>
<path d="M2150 1000 l0 -70 58 0 c31 0 63 4 69 8 11 7 12 51 4 125 -1 4 -30 7
-66 7 l-65 0 0 -70z"/>
<path d="M2327 1052 c-23 -25 -22 -85 1 -105 19 -17 87 -23 109 -9 22 14 33
60 22 89 -13 36 -25 43 -75 43 -27 0 -46 -6 -57 -18z"/>
<path d="M400 360 l0 -70 58 0 c31 0 63 4 69 8 11 7 12 51 4 125 -1 4 -30 7
-66 7 l-65 0 0 -70z"/>
<path d="M1212 418 c-15 -15 -16 -50 -1 -65 8 -8 6 -18 -6 -37 l-17 -26 30 0
c21 0 36 8 51 28 l20 27 1 -27 c0 -23 4 -28 25 -28 24 0 25 2 25 70 l0 70 -58
0 c-32 0 -63 -5 -70 -12z"/>
<path d="M2060 360 c0 -68 1 -70 25 -70 19 0 25 5 25 23 l1 22 19 -23 c14 -17
28 -22 51 -20 l31 3 -21 27 c-25 31 -27 54 -6 62 8 3 15 15 15 26 0 31 -44 26
-69 -7 l-20 -28 -1 28 c0 22 -4 27 -25 27 -24 0 -25 -2 -25 -70z"/>
<path d="M2237 412 c-23 -25 -22 -85 2 -106 14 -13 33 -16 72 -14 47 3 54 6
57 25 3 21 1 22 -41 17 -28 -4 -47 -2 -51 5 -5 7 9 11 43 11 47 0 51 2 51 24
0 37 -26 56 -74 56 -29 0 -48 -6 -59 -18z"/>
</g>
</svg>
