<?xml version="1.0" standalone="no"?>
<!DOCTYPE svg PUBLIC "-//W3C//DTD SVG 20010904//EN"
 "http://www.w3.org/TR/2001/REC-SVG-20010904/DTD/svg10.dtd">
<svg version="1.0" xmlns="http://www.w3.org/2000/svg"
 width="300.000000pt" height="200.000000pt" viewBox="0 0 300.000000 200.000000"
 preserveAspectRatio="xMidYMid meet">

<g transform="translate(0.000000,200.000000) scale(0.100000,-0.100000)"
fill="#000000" stroke="none">
<path d="M1735 1854 c-60 -7 -111 -13 -113 -13 -13 -3 14 -21 31 -21 20 0 20
0 1 -14 -24 -18 -22 -19 126 -40 116 -16 194 -45 214 -78 8 -13 -2 -35 -42
-102 -29 -46 -52 -93 -52 -104 0 -23 -108 -149 -278 -324 -122 -125 -124 -126
-143 -107 -27 27 -75 24 -104 -6 -30 -29 -32 -66 -5 -90 11 -10 20 -22 20 -27
0 -18 -28 -6 -58 25 -38 39 -44 87 -12 87 11 0 20 7 20 15 0 12 -14 15 -70 15
l-69 0 -191 190 c-153 151 -190 194 -185 209 4 14 -7 39 -35 80 -52 76 -61
120 -30 149 34 32 95 57 200 82 117 28 120 30 84 46 -22 9 -25 13 -10 13 15 1
17 4 9 12 -8 8 -61 10 -165 8 -150 -4 -155 -5 -221 -37 -46 -23 -97 -62 -158
-119 -121 -115 -130 -129 -119 -178 9 -38 8 -41 -56 -112 l-66 -73 24 -32 c12
-18 22 -39 20 -46 -2 -7 7 -21 20 -32 l23 -18 -27 -29 c-16 -16 -28 -33 -28
-39 1 -5 16 9 34 30 21 24 38 36 45 31 9 -5 5 -16 -16 -39 -26 -29 -25 -29 10
3 38 36 49 71 22 71 -19 0 -19 14 0 30 9 7 34 36 57 64 28 36 21 30 -25 -19
-64 -70 -65 -70 -86 -51 l-21 19 60 67 c33 37 60 75 60 83 0 20 17 31 26 16 3
-6 1 -15 -6 -19 -8 -5 -2 -15 21 -32 33 -23 53 -32 154 -68 58 -22 85 -42 210
-162 l94 -90 -29 -25 c-37 -31 -40 -71 -7 -101 32 -30 82 -29 111 3 17 18 25
22 34 13 7 -7 12 -18 12 -25 0 -7 6 -13 13 -13 20 0 170 -156 163 -169 -4 -6
-24 -11 -45 -11 -48 0 -84 -35 -80 -77 2 -15 -1 -34 -5 -42 -14 -22 -26 7 -26
67 l0 52 -54 0 -55 0 -11 -55 c-6 -30 -16 -55 -21 -55 -5 0 -9 -13 -9 -30 0
-23 4 -30 20 -30 11 0 20 7 20 15 0 11 11 15 40 15 32 0 40 -4 40 -17 0 -10
-52 -71 -115 -137 l-115 -119 0 72 c0 64 -2 71 -20 71 -17 0 -20 -7 -20 -50 0
-46 -2 -50 -23 -50 -33 0 -47 19 -47 62 0 31 -4 38 -20 38 -18 0 -20 -7 -20
-55 0 -62 13 -75 74 -75 33 0 36 -2 36 -30 0 -17 5 -30 13 -31 6 0 26 -19 42
-42 17 -23 48 -51 69 -62 l38 -20 94 98 94 99 0 -36 c0 -32 3 -36 25 -36 24 0
25 2 25 63 l0 62 103 103 102 102 65 -65 c64 -64 64 -65 35 -65 -73 -1 -116
-63 -95 -141 16 -59 79 -80 120 -39 47 47 11 129 -50 117 -16 -4 -30 -2 -30 3
0 14 35 30 64 30 14 0 26 6 26 12 0 7 10 3 22 -9 18 -19 21 -31 19 -97 -2 -69
-1 -76 17 -76 11 0 30 15 43 34 27 39 39 38 39 -5 0 -22 5 -29 20 -29 11 0 20
6 20 12 0 7 35 -22 78 -65 42 -42 82 -77 88 -77 20 0 94 60 116 95 13 19 31
37 41 41 9 3 17 14 17 25 0 16 -3 18 -19 10 -14 -8 -23 -5 -41 14 -37 40 -9
71 41 45 16 -9 19 -7 19 9 0 33 -59 43 -98 15 -22 -15 -25 -12 -130 90 l-107
106 37 0 c49 0 86 39 61 64 -5 4 -8 22 -8 39 l0 32 -62 3 -63 3 0 -52 c0 -45
-2 -50 -15 -39 -8 7 -15 21 -15 31 0 26 -35 59 -64 59 -13 0 -29 6 -35 13 -8
11 9 35 84 113 76 80 94 95 95 77 0 -21 5 -23 53 -23 57 0 77 12 77 45 0 29
-19 45 -52 45 -15 0 -28 4 -28 9 0 13 267 267 293 278 12 6 56 27 97 47 76 37
78 42 5 11 -40 -17 -40 -17 -20 3 11 11 49 45 84 76 50 42 68 53 78 44 7 -6
11 -19 8 -28 -4 -13 14 -35 65 -80 38 -35 70 -69 70 -76 0 -7 -11 -21 -25 -32
-14 -11 -25 -30 -25 -42 0 -18 3 -20 14 -11 9 7 17 8 20 2 3 -5 30 -28 59 -51
l52 -43 -52 52 c-29 29 -53 55 -53 59 0 4 12 15 25 25 24 17 25 17 75 -28 28
-25 56 -45 63 -45 19 0 79 66 75 81 -1 8 -27 36 -55 63 -43 40 -53 45 -53 29
0 -11 9 -28 20 -38 11 -10 27 -31 35 -48 16 -33 15 -32 -54 26 -22 19 -37 25
-43 19 -13 -13 -38 -4 -38 14 0 12 -29 42 -115 118 -29 25 -29 27 -11 40 10 8
15 19 12 24 -3 5 -6 25 -8 46 -2 32 -12 46 -73 100 -137 123 -234 179 -336
196 -74 12 -70 12 -214 -6z m-825 -593 c0 -5 -8 -15 -17 -21 -12 -7 -13 -10
-3 -7 8 2 24 -3 35 -12 20 -16 20 -16 1 7 -33 39 -3 24 40 -20 22 -24 47 -47
55 -53 8 -5 38 -29 66 -53 52 -43 53 -44 35 -67 -19 -27 -37 -33 -28 -10 8 23
-4 45 -26 45 -22 0 -98 58 -98 75 0 12 -39 52 -46 47 -2 -1 -18 8 -34 20 -25
18 -28 23 -15 31 14 7 13 12 -5 37 -12 16 -24 29 -28 29 -21 -3 -52 19 -92 65
-24 28 -38 45 -30 39 20 -18 29 -16 25 6 -2 12 30 -13 81 -64 46 -46 84 -88
84 -94z m1099 145 c10 -11 -20 -46 -159 -183 -94 -92 -175 -169 -179 -171 -5
-2 -11 4 -14 13 -5 10 45 68 160 185 91 94 169 170 173 170 4 0 13 -6 19 -14z
m-1039 -386 c14 -26 -4 -63 -28 -58 -18 3 -28 39 -18 64 8 20 34 17 46 -6z
m475 10 c4 -6 -5 -10 -19 -10 -14 0 -26 5 -26 10 0 6 9 10 19 10 11 0 23 -4
26 -10z m164 -56 c-30 -36 -41 5 -11 46 l17 25 3 -28 c2 -16 -2 -35 -9 -43z
m-395 30 c9 -3 16 -12 16 -20 0 -8 5 -14 10 -14 6 0 10 -7 10 -15 0 -9 11 -20
25 -25 13 -5 48 -31 76 -57 28 -26 55 -47 61 -45 5 1 7 -2 3 -7 -3 -6 11 -29
32 -51 30 -34 37 -50 38 -85 0 -42 0 -43 -17 -28 -11 10 -18 30 -18 55 0 35
-2 38 -29 38 -16 0 -31 -6 -34 -12 -3 -9 -15 -3 -35 16 -17 16 -29 32 -27 36
6 10 -52 63 -63 57 -5 -4 -28 14 -52 38 -24 25 -39 45 -32 45 7 0 12 15 12 40
0 43 0 43 24 34z m-67 -40 c-9 -9 -28 6 -21 18 4 6 10 6 17 -1 6 -6 8 -13 4
-17z m291 10 c-9 -9 -21 -13 -27 -10 -20 13 -11 26 16 26 25 0 26 -1 11 -16z
m357 1 c0 -5 -10 -11 -22 -13 -16 -2 -23 2 -23 13 0 11 7 15 23 13 12 -2 22
-7 22 -13z m-273 -78 c-17 -18 -41 -33 -53 -34 -20 -2 -19 1 11 33 19 18 43
34 54 34 18 0 16 -4 -12 -33z m-492 -217 c0 -36 -2 -40 -25 -40 -22 0 -25 3
-19 28 10 47 13 52 29 52 11 0 15 -11 15 -40z m140 25 c-7 -9 -15 -13 -17 -11
-7 7 7 26 19 26 6 0 6 -6 -2 -15z m570 5 c0 -5 -9 -10 -20 -10 -11 0 -20 5
-20 10 0 6 9 10 20 10 11 0 20 -4 20 -10z m-170 -63 c0 -5 -6 -5 -13 2 -8 6
-16 9 -18 6 -3 -2 -6 5 -6 16 -2 20 -1 20 18 4 10 -10 19 -22 19 -28z m180 8
c0 -9 -9 -15 -25 -15 -16 0 -25 6 -25 15 0 9 9 15 25 15 16 0 25 -6 25 -15z
m-131 -72 c34 -46 53 -63 65 -56 6 3 8 3 4 -2 -9 -9 9 -35 24 -35 5 0 6 6 2
13 -5 9 -4 9 5 1 7 -6 13 -18 15 -27 1 -8 7 -22 14 -30 10 -12 9 -16 -8 -20
-15 -4 -29 7 -59 45 -22 27 -45 61 -52 77 -13 28 -62 62 -52 35 3 -8 11 -14
18 -14 12 0 31 -37 23 -45 -1 -2 -25 17 -53 41 l-50 44 42 0 c34 0 45 -5 62
-27z m177 -200 c-7 -7 -26 7 -26 19 0 6 6 6 15 -2 9 -7 13 -15 11 -17z m-326
2 c15 -18 10 -45 -13 -59 -22 -14 -37 5 -37 47 0 30 28 38 50 12z m140 1 c0
-8 -4 -18 -10 -21 -5 -3 -10 3 -10 14 0 12 5 21 10 21 6 0 10 -6 10 -14z m210
-52 c0 -14 -3 -14 -15 -4 -8 7 -15 14 -15 16 0 2 7 4 15 4 8 0 15 -7 15 -16z"/>
<path d="M1225 940 c10 -11 20 -20 23 -20 3 0 -3 9 -13 20 -10 11 -20 20 -23
20 -3 0 3 -9 13 -20z"/>
<path d="M2459 1417 c19 -21 39 -37 44 -37 14 0 -11 28 -47 52 l-31 21 34 -36z"/>
<path d="M2235 1420 c-3 -6 1 -7 9 -4 18 7 21 14 7 14 -6 0 -13 -4 -16 -10z"/>
<path d="M2295 1370 c21 -22 41 -40 44 -40 3 0 -13 18 -34 40 -21 22 -41 40
-44 40 -3 0 13 -18 34 -40z"/>
<path d="M459 1323 l-24 -28 28 24 c25 23 32 31 24 31 -2 0 -14 -12 -28 -27z"/>
<path d="M172 1287 l-42 -48 17 -29 c26 -45 41 -45 92 4 l47 43 -36 39 -36 39
-42 -48z"/>
<path d="M2300 1337 c0 -2 15 -16 33 -33 l32 -29 -29 33 c-28 30 -36 37 -36
29z"/>
<path d="M2380 1295 c13 -14 26 -25 28 -25 3 0 -5 11 -18 25 -13 14 -26 25
-28 25 -3 0 5 -11 18 -25z"/>
<path d="M2450 1155 c19 -19 36 -35 39 -35 3 0 -10 16 -29 35 -19 19 -36 35
-39 35 -3 0 10 -16 29 -35z"/>
<path d="M423 1096 c-23 -20 -28 -32 -28 -71 0 -39 5 -51 28 -71 44 -38 127
-30 127 12 0 23 0 23 -30 6 -23 -13 -34 -14 -47 -6 -27 17 -39 59 -25 89 16
35 40 42 74 22 27 -16 28 -16 28 7 0 42 -83 50 -127 12z"/>
<path d="M560 1055 c0 -8 9 -15 20 -15 18 0 20 -7 20 -55 0 -52 1 -55 25 -55
24 0 25 3 25 55 0 48 2 55 20 55 11 0 20 7 20 15 0 12 -14 15 -65 15 -51 0
-65 -3 -65 -15z"/>
<path d="M710 974 c0 -86 2 -94 19 -94 14 0 21 8 23 28 3 23 7 27 31 24 41 -5
67 22 67 69 0 53 -19 67 -85 67 l-55 -1 0 -93z m96 40 c8 -30 -16 -60 -40 -51
-16 6 -23 57 -9 70 16 16 43 6 49 -19z"/>
<path d="M1885 1045 c-33 -32 -32 -68 1 -94 41 -32 104 -26 104 10 0 16 -3 17
-24 7 -36 -16 -56 -4 -56 32 0 36 20 48 56 32 21 -10 24 -9 24 7 0 38 -70 42
-105 6z"/>
<path d="M2000 1055 c0 -8 9 -15 20 -15 18 0 20 -7 20 -55 0 -52 1 -55 25 -55
24 0 25 3 25 55 0 48 2 55 20 55 11 0 20 7 20 15 0 12 -14 15 -65 15 -51 0
-65 -3 -65 -15z"/>
<path d="M2150 1000 l0 -70 54 0 c36 0 60 5 70 16 17 17 21 36 9 48 -5 4 -8
22 -8 39 l0 32 -62 3 -63 3 0 -71z m80 30 c0 -5 -9 -10 -20 -10 -11 0 -20 5
-20 10 0 6 9 10 20 10 11 0 20 -4 20 -10z m10 -55 c0 -9 -9 -15 -25 -15 -16 0
-25 6 -25 15 0 9 9 15 25 15 16 0 25 -6 25 -15z"/>
<path d="M2332 1047 c-28 -30 -28 -68 1 -95 48 -45 127 -16 127 48 0 65 -83
95 -128 47z m78 -27 c14 -26 -4 -63 -28 -58 -18 3 -28 39 -18 64 8 20 34 17
46 -6z"/>
<path d="M400 360 l0 -70 54 0 c36 0 60 5 70 16 17 17 21 36 9 48 -5 4 -8 22
-8 39 l0 32 -62 3 -63 3 0 -71z m80 30 c0 -5 -9 -10 -20 -10 -11 0 -20 5 -20
10 0 6 9 10 20 10 11 0 20 -4 20 -10z m10 -55 c0 -9 -9 -15 -25 -15 -16 0 -25
6 -25 15 0 9 9 15 25 15 16 0 25 -6 25 -15z"/>
<path d="M1222 418 c-15 -15 -15 -51 0 -66 9 -9 8 -16 -5 -30 -23 -25 -21 -32
6 -32 15 0 29 9 37 25 7 14 19 25 27 25 7 0 13 -11 13 -25 0 -18 5 -25 20 -25
18 0 20 7 20 70 l0 70 -53 0 c-29 0 -58 -5 -65 -12z m78 -33 c0 -16 -35 -21
-44 -6 -8 12 4 21 26 21 10 0 18 -7 18 -15z"/>
<path d="M2060 360 c0 -63 2 -70 20 -70 15 0 20 7 20 25 0 14 4 25 10 25 5 0
17 -11 26 -25 10 -15 26 -25 40 -25 29 0 30 3 4 38 -22 30 -19 62 6 62 8 0 14
9 14 20 0 31 -35 25 -60 -10 -12 -16 -26 -30 -31 -30 -5 0 -9 14 -9 30 0 23
-4 30 -20 30 -18 0 -20 -7 -20 -70z"/>
<path d="M2245 405 c-33 -32 -32 -68 1 -94 41 -32 114 -26 114 9 0 16 -4 17
-29 7 -30 -11 -61 -5 -61 13 0 5 23 10 51 10 51 0 51 0 45 28 -14 56 -78 71
-121 27z m70 -15 c4 -6 -5 -10 -19 -10 -14 0 -26 5 -26 10 0 6 9 10 19 10 11
0 23 -4 26 -10z"/>
</g>
</svg>
