<svg xmlns="http://www.w3.org/2000/svg" width="501" height="518" viewBox="0 0 501 518" version="1.1"><path d="M 264.254 84.762 C 259.235 89.451, 257.833 93.261, 258.305 100.933 C 258.756 108.256, 259.506 110.423, 261.224 109.362 C 261.897 108.946, 262.019 109.160, 261.545 109.927 C 261.087 110.668, 261.780 112.231, 263.277 113.831 C 269.643 120.641, 269.471 119.200, 269.807 168.377 L 270.114 213.255 267.807 212.685 C 266.538 212.371, 261.900 210.833, 257.500 209.267 L 249.500 206.420 249.171 202.460 C 248.708 196.892, 250.565 191.492, 254.422 187.188 C 259.239 181.814, 261 177.751, 261 172.018 C 261 165.656, 258.421 158.804, 256.859 161.016 C 256.012 162.216, 255.930 162.137, 256.430 160.605 C 257.033 158.758, 254.629 155, 252.845 155 C 252.380 155, 252 158.173, 252 162.051 C 252 168.920, 251.903 169.191, 248.250 172.546 C 246.188 174.441, 243.479 175.993, 242.230 175.995 C 239.111 176.002, 232.022 171.364, 231.902 169.237 C 231.848 168.282, 231.797 164.463, 231.788 160.750 C 231.778 156.291, 231.378 154, 230.609 154 C 226.458 154, 220.029 164.242, 220.010 170.884 C 219.995 176.136, 222.021 181.659, 225.468 185.758 C 227.199 187.816, 229.376 191.143, 230.307 193.151 C 232.294 197.437, 232.547 203.892, 230.750 204.453 C 230.063 204.668, 225.563 205.054, 220.750 205.311 L 212 205.779 212 177.389 L 212 149 216.892 149 C 221.206 149, 221.854 148.720, 222.379 146.627 C 223.745 141.184, 233.195 140.971, 235.805 146.324 C 237.043 148.864, 237.483 149, 244.448 149 C 250.217 149, 251.916 148.662, 252.393 147.418 C 252.727 146.548, 253 140.960, 253 135 C 253 129.040, 252.727 123.452, 252.393 122.582 C 251.915 121.336, 250.210 121, 244.368 121 C 237.420 121, 236.892 121.155, 236.020 123.446 C 234.277 128.031, 223.511 127.672, 222.287 122.988 C 221.845 121.298, 220.849 120.979, 215.633 120.860 C 195.276 120.394, 177.641 122.017, 166 125.430 C 160.681 126.989, 152.024 130.949, 151.942 131.860 C 151.911 132.212, 151.708 134.175, 151.493 136.222 C 151.083 140.116, 152.132 141.674, 154.250 140.317 C 163.688 134.270, 180.855 136.877, 187.308 145.338 C 189.542 148.266, 190.771 149, 193.444 149 C 195.569 149, 197.007 149.576, 197.393 150.582 C 197.727 151.452, 198 165.798, 198 182.463 L 198 212.762 193.398 216.881 C 190.867 219.146, 188.397 221, 187.910 221 C 187.423 221, 185.932 219.313, 184.596 217.250 C 183.260 215.188, 180.140 210.832, 177.663 207.571 C 172.463 200.724, 170.524 194.917, 171.259 188.391 C 171.907 182.647, 170.558 177.499, 167.260 173.131 C 164.520 169.501, 157.170 165.675, 153.917 166.186 C 152.070 166.475, 152.196 166.903, 155.524 171.643 C 157.996 175.166, 159.229 178.110, 159.433 180.986 C 159.598 183.296, 159.392 184.634, 158.976 183.961 C 158.461 183.127, 157.981 183.497, 157.475 185.118 C 156.459 188.369, 155.269 188.967, 149.780 188.985 C 145.700 188.998, 144.763 188.598, 142.871 186.039 C 141.667 184.411, 140.309 183.309, 139.852 183.591 C 139.396 183.873, 139.235 183.518, 139.494 182.802 C 139.753 182.086, 139.076 180.375, 137.990 179 C 136.316 176.881, 135.863 176.729, 135.023 178 C 133.449 180.380, 133.839 189.858, 135.669 193.715 C 137.774 198.151, 143.891 202.637, 149.014 203.502 C 154.813 204.482, 158.858 207.679, 164.870 216.036 C 167.823 220.141, 170.669 223.376, 171.194 223.225 C 171.719 223.074, 171.900 223.352, 171.597 223.844 C 171.293 224.335, 172.835 227.236, 175.022 230.292 C 179.520 236.573, 179.553 236.711, 177.506 240.636 C 176.685 242.211, 176.010 244.261, 176.006 245.191 C 176.003 246.121, 175.550 247.160, 175 247.500 C 174.450 247.840, 174 249.195, 174 250.512 C 174 251.829, 173.589 253.940, 173.087 255.203 C 172.585 256.466, 171.615 261.416, 170.933 266.202 C 170.161 271.621, 169.185 275.099, 168.346 275.421 C 167.606 275.705, 167 276.990, 167 278.277 C 167 279.565, 166.339 281.491, 165.532 282.559 C 164.724 283.626, 164.049 285.372, 164.032 286.439 C 164.002 288.285, 164.095 288.275, 166 286.230 C 167.100 285.050, 168 282.775, 168 281.177 C 168 279.578, 168.900 277.126, 170 275.727 C 171.100 274.329, 172.004 271.906, 172.009 270.342 C 172.028 264.651, 176.057 247.723, 179.177 240.231 C 183.259 230.423, 188.309 224.945, 197.413 220.446 C 212.582 212.949, 227.232 215.297, 242.603 227.692 C 247.785 231.870, 249.279 231.964, 245.437 227.871 C 238.426 220.400, 224.493 214, 215.242 214 C 210.889 214, 202.764 215.648, 197.500 217.598 L 195.500 218.339 197.500 216.061 C 200.064 213.142, 206.977 209.644, 214.516 207.452 C 219.282 206.067, 222.884 205.834, 232.859 206.264 L 245.273 206.800 256.178 212.236 C 262.177 215.226, 267.300 217.323, 267.564 216.896 C 268.521 215.348, 273.631 218.140, 279.642 223.495 C 290.657 233.309, 298.757 248.345, 302.002 265 C 302.699 268.575, 303.812 271.950, 304.477 272.500 C 305.141 273.050, 306.270 275.277, 306.986 277.449 C 308.263 281.327, 308.228 281.446, 305.047 284.102 C 301.320 287.213, 285.790 295.111, 279 297.348 C 277.973 297.686, 278.134 297.867, 279.508 297.921 C 282.784 298.050, 297.201 292.564, 303.892 288.643 C 307.310 286.639, 310.551 285, 311.093 285 C 315.418 285, 331 297.584, 331 301.077 C 331 303.394, 327.466 305.836, 317 310.749 C 307.173 315.362, 306.656 315.575, 298 318.601 C 293.865 320.047, 292.410 320.894, 294 320.930 C 295.375 320.962, 297.789 320.315, 299.364 319.494 C 300.940 318.672, 303.051 318, 304.055 318 C 305.060 318, 306.129 317.600, 306.432 317.111 C 306.734 316.622, 308.223 315.926, 309.741 315.564 C 313.596 314.646, 324.209 309.238, 328.508 306 C 333.085 302.553, 333.442 301.271, 330.876 297.503 C 329.569 295.584, 328.275 294.010, 328 294.006 C 327.725 294.001, 326.150 292.833, 324.500 291.409 C 322.850 289.985, 318.688 286.998, 315.250 284.771 C 310.280 281.551, 309 280.200, 309 278.175 C 309 276.775, 308.044 274.611, 306.875 273.367 C 305.707 272.124, 304.332 269.170, 303.821 266.803 C 303.309 264.436, 302.505 260.700, 302.033 258.500 C 301.561 256.300, 300.444 252.700, 299.551 250.500 C 298.659 248.300, 297.667 245.713, 297.347 244.750 C 297.028 243.787, 296.418 243, 295.992 243 C 295.566 243, 294.945 241.917, 294.613 240.593 C 294.280 239.269, 293.756 237.529, 293.448 236.726 C 292.937 235.393, 294.637 233.755, 307.523 223.163 C 308.635 222.248, 312.296 219.137, 315.659 216.250 C 322.217 210.617, 324.701 209.907, 327.402 212.892 C 328.441 214.040, 329.896 214.578, 331.105 214.262 C 332.360 213.934, 334.030 214.619, 335.624 216.116 C 337.606 217.978, 338.025 219.124, 337.566 221.419 C 337.146 223.518, 337.620 225.285, 339.240 227.658 C 343.082 233.286, 344.411 233.044, 353.032 225.146 C 355.489 222.895, 357.837 221.041, 358.250 221.027 C 359.533 220.981, 359.075 218.740, 357.406 216.896 C 356.529 215.927, 355.067 215.372, 354.156 215.662 C 352.954 216.044, 352.849 215.937, 353.774 215.271 C 355.524 214.009, 351.688 210.522, 349.482 211.369 C 348.509 211.742, 346.908 210.999, 345.371 209.462 C 343.357 207.448, 342.985 206.344, 343.513 203.939 C 344.089 201.317, 343.448 200.048, 338.482 193.978 C 323.325 175.452, 306.340 164.270, 301.753 169.798 C 300.738 171.020, 300.874 171.491, 302.503 172.395 C 303.597 173.003, 306.361 175.308, 308.645 177.517 C 313.378 182.096, 315.382 187.757, 314.414 193.812 C 314.021 196.268, 314.201 198.006, 314.892 198.433 C 317.818 200.242, 315.831 203.634, 308.248 209.770 C 303.987 213.219, 297.803 218.241, 294.506 220.929 C 291.210 223.617, 288.172 225.607, 287.756 225.349 C 287.340 225.092, 287 202.394, 287 174.909 C 287 119.832, 286.800 121.742, 293.407 113.678 C 299.262 106.534, 300.556 99.660, 297.447 92.218 C 295.892 88.495, 291.341 83, 289.813 83 C 289.366 83, 289 86.504, 289 90.786 L 289 98.572 284.818 101.786 C 282.518 103.554, 280.319 105, 279.931 105 C 279.543 105, 277.038 103.537, 274.363 101.750 L 269.500 98.500 269.210 90.250 C 269.050 85.713, 268.535 82, 268.065 82 C 267.596 82, 265.881 83.243, 264.254 84.762 M 251.382 134.500 C 251.384 141.100, 251.546 143.670, 251.741 140.211 C 251.937 136.752, 251.936 131.352, 251.738 128.211 C 251.540 125.070, 251.380 127.900, 251.382 134.500 M 166 289.743 C 166 291.361, 170.862 296.215, 174.830 298.559 C 176.898 299.780, 178.993 302.406, 180.585 305.771 C 182.116 309.008, 183.520 310.797, 184.199 310.377 C 184.854 309.972, 185.029 310.145, 184.624 310.799 C 183.936 311.912, 191.746 327.317, 194.843 330.954 C 196.036 332.356, 197.269 332.742, 199.250 332.334 C 200.762 332.022, 202 331.449, 202 331.061 C 202 330.673, 200.592 327.755, 198.871 324.578 C 196.513 320.224, 195.504 319.133, 194.776 320.150 C 194.064 321.147, 193.971 321.010, 194.422 319.626 C 194.784 318.514, 194.010 315.923, 192.516 313.250 C 189.811 308.410, 189.267 305, 191.200 305 C 193.300 305, 190.726 303.414, 185.500 301.487 C 178.702 298.981, 169.415 293.430, 167.539 290.753 C 166.693 289.544, 166 289.090, 166 289.743 M 196 296.552 C 199.719 298.225, 212.668 298.732, 214.139 297.261 C 214.597 296.803, 214.190 296.414, 213.236 296.396 C 212.281 296.378, 207.225 296.051, 202 295.670 C 192.810 294.999, 192.614 295.028, 196 296.552 M 245.601 296.105 C 242.356 296.578, 239.516 297.151, 239.289 297.377 C 238.572 298.094, 250.844 299.215, 251.947 298.533 C 253.142 297.794, 253.396 294.936, 252.250 295.122 C 251.838 295.189, 248.845 295.631, 245.601 296.105 M 195.762 305.707 C 197.006 305.946, 198.806 305.937, 199.762 305.687 C 200.718 305.437, 199.700 305.241, 197.500 305.252 C 195.300 305.263, 194.518 305.468, 195.762 305.707 M 203.414 306.861 C 203.859 307.581, 207.538 308, 213.410 308 C 222.954 308, 229.050 309.315, 228.934 311.348 C 228.898 311.982, 225.411 315.319, 221.184 318.765 C 210.083 327.816, 206 331.479, 206 332.386 C 206 332.825, 206.859 334.277, 207.910 335.612 L 209.820 338.040 221.660 327.802 C 228.172 322.171, 234.620 316.537, 235.990 315.282 C 237.359 314.027, 238.934 313.007, 239.490 313.015 C 240.576 313.030, 248.219 315.508, 251.500 316.907 C 252.600 317.377, 255.525 318.543, 258 319.500 C 265.015 322.211, 267.378 323.173, 269.033 323.990 C 272.433 325.667, 276.896 326.027, 281.083 324.961 C 283.512 324.343, 286.738 323.597, 288.250 323.305 C 289.762 323.012, 291 322.374, 291 321.887 C 291 320.797, 291.555 320.741, 285 322.500 C 276.351 324.822, 273.441 324.368, 259 318.450 C 251.575 315.407, 240.550 311.622, 234.500 310.039 C 222.529 306.907, 202.155 304.824, 203.414 306.861 M 266.353 336.596 C 258.198 338.370, 250.622 341.930, 243.321 347.418 C 232.827 355.306, 224.576 355.660, 211 348.803 C 201.204 343.856, 197.022 345.644, 204.888 351.417 C 213.378 357.650, 220.134 360.190, 228.028 360.116 C 235.685 360.044, 240.427 358.198, 246.380 352.972 C 248.269 351.313, 253.344 348.284, 257.657 346.240 C 265.398 342.574, 265.662 342.525, 278 342.513 C 295.259 342.495, 301.941 344.653, 318.654 355.640 C 323.139 358.588, 327.225 361, 327.735 361 C 329.199 361, 331.548 355.971, 330.454 355.180 C 315.317 344.228, 304.620 339.275, 290 336.450 C 281.121 334.734, 274.729 334.773, 266.353 336.596 M 198.180 339.250 C 198.509 341.562, 201.685 342.719, 204.616 341.594 C 207.276 340.573, 204.382 337, 200.895 337 C 198.320 337, 197.909 337.341, 198.180 339.250" stroke="none" fill="#323232" fill-rule="evenodd"/><path d="M 217.717 208.616 C 217.379 208.955, 215.706 209.517, 214 209.866 C 209.395 210.808, 209.840 212.508, 214.602 212.165 C 218.956 211.850, 229.646 214.249, 234.057 216.529 C 242.956 221.132, 258.995 238.964, 257.572 242.674 C 257.081 243.952, 254.895 242.304, 247.635 235.185 C 227.212 215.157, 209.183 212.887, 189.355 227.848 C 183.356 232.375, 175.646 252.559, 174.135 267.691 C 173.681 272.232, 172.787 275.578, 171.708 276.770 C 170.769 277.808, 170 279.605, 170 280.764 C 170 281.922, 169.600 283.921, 169.112 285.206 C 167.347 289.846, 174.847 295.753, 188.500 300.475 C 194.659 302.606, 199.491 303.439, 209.500 304.097 C 221.489 304.886, 225.353 305.452, 235 307.836 C 238.632 308.733, 252.003 313.367, 255.500 314.940 C 261.839 317.791, 274.553 322, 276.835 322.003 C 284.386 322.012, 314.713 311.169, 324.025 305.131 C 326.211 303.713, 328 301.765, 328 300.801 C 328 298.720, 323.120 294.096, 316.479 289.884 L 311.693 286.849 306.596 289.559 C 303.793 291.050, 300.841 292.883, 300.036 293.634 C 298.758 294.826, 298.798 295, 300.344 295 C 301.319 295, 303.911 293.558, 306.104 291.796 C 309.965 288.693, 310.176 288.643, 312.769 290.217 C 316.437 292.443, 316.563 293.544, 313.288 294.768 C 311.754 295.341, 307.458 296.978, 303.739 298.405 C 300.021 299.832, 296.084 301, 294.989 301 C 293.895 301, 293 301.450, 293 302 C 293 302.550, 290.637 302.971, 287.750 302.936 L 282.500 302.872 286 301.316 C 287.925 300.460, 290.281 299.364, 291.236 298.880 C 292.191 298.396, 293.599 298, 294.364 298 C 295.129 298, 296.315 297.325, 297 296.500 C 298.571 294.607, 298.523 294.611, 291.415 296.931 C 288.162 297.993, 282.435 299.568, 278.688 300.431 C 266.640 303.206, 255.591 301.914, 266.750 299.034 C 276.137 296.612, 288.672 291.713, 294.230 288.295 C 296.282 287.033, 298.237 286, 298.576 286 C 298.914 286, 300.498 285.069, 302.096 283.932 C 305.420 281.565, 306.027 277.170, 303.393 274.536 C 302.510 273.653, 300.949 269.008, 299.925 264.215 C 298.030 255.346, 287.913 233, 285.792 233 C 285.239 233, 285.061 233.717, 285.397 234.593 C 288.222 241.953, 286.650 242.918, 281.884 236.750 C 275.750 228.814, 271.581 224.507, 267.121 221.500 C 250.359 210.200, 244.159 208, 229.071 208 C 223.165 208, 218.056 208.277, 217.717 208.616 M 250.638 226.500 C 250.955 227.325, 251.789 228, 252.492 228 C 253.195 228, 254.573 229.226, 255.555 230.724 C 256.537 232.223, 258.193 234.360, 259.236 235.474 C 262.262 238.707, 271 252.169, 271 253.598 C 271 254.923, 276.762 264, 277.603 264 C 278.839 264, 284.830 261.084, 285.362 260.223 C 286.129 258.983, 283.560 253.680, 279.683 248.500 C 274.590 241.695, 260.742 228.898, 257.844 228.319 C 256.350 228.020, 254.888 227.151, 254.595 226.388 C 254.302 225.625, 253.163 225, 252.063 225 C 250.696 225, 250.245 225.475, 250.638 226.500 M 183.798 292.179 C 182.123 293.286, 184.381 294.721, 192.499 297.709 C 196.824 299.301, 200.798 299.930, 206.727 299.959 C 214.381 299.997, 215.066 299.829, 216.563 297.544 C 218.969 293.872, 217.700 293.017, 210.716 293.604 C 207.297 293.891, 200.134 293.495, 194.798 292.724 C 189.230 291.919, 184.543 291.687, 183.798 292.179 M 250.407 292.993 C 249.861 293.539, 245.083 294.101, 239.789 294.243 C 229.665 294.513, 227.333 295.308, 230.296 297.475 C 232.392 299.007, 251.323 301.536, 252.989 300.507 C 253.613 300.121, 254.555 298.670, 255.083 297.281 C 256.548 293.428, 253.118 290.282, 250.407 292.993" stroke="none" fill="#ffaa01" fill-rule="evenodd"/><path d="M 251.382 134.500 C 251.384 141.100, 251.546 143.670, 251.741 140.211 C 251.937 136.752, 251.936 131.352, 251.738 128.211 C 251.540 125.070, 251.380 127.900, 251.382 134.500 M 76.223 365.667 C 69.032 369.198, 64.754 377.899, 66.819 384.792 C 68.548 390.561, 72.924 394.190, 78.837 394.758 C 84.781 395.330, 89.552 393.898, 93.308 390.415 C 95.532 388.353, 95.862 387.538, 94.928 386.413 C 93.346 384.508, 92.427 384.624, 88.988 387.167 C 82.755 391.775, 75.997 388.875, 76.004 381.595 C 76.014 370.567, 87.821 364.767, 91.331 374.066 C 92.240 376.474, 92.982 377.028, 94.986 376.794 C 96.643 376.600, 97.472 375.903, 97.417 374.750 C 97.371 373.788, 97.258 371.034, 97.167 368.632 L 97 364.264 88.250 364.160 C 82.057 364.087, 78.542 364.527, 76.223 365.667 M 103 372.882 C 100.366 373.347, 99.421 374.057, 99.180 375.750 C 98.961 377.297, 99.372 378, 100.498 378 C 101.592 378, 101.959 378.580, 101.604 379.750 C 101.312 380.712, 100.590 383.750, 100 386.500 C 99.410 389.250, 98.688 392.288, 98.396 393.250 C 97.952 394.715, 98.522 395, 101.894 395 C 105.798 395, 105.956 394.869, 106.999 390.750 C 108.656 384.206, 111.171 378.979, 113.179 377.904 C 114.738 377.070, 114.999 377.330, 114.994 379.715 C 114.991 381.247, 114.585 384.075, 114.091 386 C 111.655 395.503, 111.558 395, 115.833 395 L 119.703 395 121.465 388.490 C 122.434 384.910, 124.134 380.828, 125.242 379.419 C 128 375.913, 129.485 377.589, 128.086 382.630 C 126.668 387.736, 126.715 392.315, 128.200 393.800 C 131.350 396.950, 142.587 393.617, 139.868 390.340 C 139.192 389.527, 137.768 389.089, 136.702 389.368 C 134.621 389.912, 134.627 390.572, 136.600 378.924 C 137.043 376.308, 136.756 374.899, 135.531 373.674 C 133.459 371.602, 128.156 371.502, 125.330 373.482 C 123.461 374.790, 123.071 374.790, 121.985 373.482 C 120.380 371.548, 115.038 371.584, 112.236 373.547 C 110.242 374.944, 110.084 374.944, 110.620 373.547 C 111.263 371.872, 109.560 371.723, 103 372.882 M 147 372.882 C 144.366 373.347, 143.421 374.057, 143.180 375.750 C 142.964 377.273, 143.374 378, 144.450 378 C 145.683 378, 145.884 378.614, 145.347 380.750 C 144.967 382.262, 143.923 386.875, 143.029 391 C 141.756 396.868, 140.923 398.715, 139.201 399.487 C 137.872 400.083, 137 401.371, 137 402.737 C 137 404.883, 137.381 405, 144.383 405 C 151.465 405, 151.786 404.898, 152.245 402.500 C 152.557 400.868, 152.270 400, 151.420 400 C 149.630 400, 148.999 398.721, 149.619 396.347 C 150.078 394.594, 150.787 394.401, 155.367 394.781 C 159.971 395.162, 160.989 394.880, 163.932 392.404 C 172.582 385.125, 171.572 372, 162.362 372 C 160.440 372, 157.998 372.466, 156.934 373.035 C 155.601 373.749, 155 373.749, 155 373.035 C 155 371.930, 152.642 371.885, 147 372.882 M 178.304 373.956 C 173.972 376.597, 171.887 380.068, 171.823 384.747 C 171.728 391.637, 175.425 395, 183.097 395 C 191.177 395, 196.989 389.288, 196.996 381.339 C 196.999 377.918, 196.453 376.718, 193.923 374.589 C 190.048 371.328, 183.078 371.045, 178.304 373.956 M 205.199 372.986 C 201.364 373.895, 201.458 373.819, 200.557 376.750 C 200.028 378.469, 200.264 379, 201.558 379 C 202.942 379, 203.124 379.592, 202.561 382.250 C 200.810 390.499, 200.801 391.658, 202.469 393.326 C 204.558 395.415, 210.315 395.495, 213.394 393.477 C 215.475 392.114, 215.850 392.114, 216.981 393.477 C 218.638 395.474, 224.934 395.435, 227.825 393.410 C 229.626 392.149, 229.853 391.528, 228.925 390.410 C 228.282 389.634, 226.728 389, 225.472 389 C 223.220 389, 223.207 388.930, 224.492 383.750 C 227.390 372.069, 227.501 373, 223.208 373 C 219.397 373, 219.370 373.029, 217.594 378.956 C 215.741 385.145, 211.520 390.922, 209.980 389.379 C 209.478 388.875, 209.889 384.979, 210.943 380.250 L 212.783 372 210.642 372.102 C 209.464 372.159, 207.015 372.556, 205.199 372.986 M 236 372.882 C 233.366 373.347, 232.421 374.057, 232.180 375.750 C 231.961 377.297, 232.372 378, 233.498 378 C 234.592 378, 234.959 378.580, 234.604 379.750 C 234.312 380.712, 233.590 383.750, 233 386.500 C 232.410 389.250, 231.688 392.288, 231.396 393.250 C 230.952 394.715, 231.522 395, 234.894 395 C 238.798 395, 238.956 394.869, 239.999 390.750 C 241.656 384.206, 244.171 378.979, 246.179 377.904 C 247.738 377.070, 247.999 377.330, 247.994 379.715 C 247.991 381.247, 247.585 384.075, 247.091 386 C 244.655 395.503, 244.558 395, 248.833 395 L 252.703 395 254.465 388.490 C 255.434 384.910, 257.134 380.828, 258.242 379.419 C 261 375.913, 262.485 377.589, 261.086 382.630 C 259.668 387.736, 259.715 392.315, 261.200 393.800 C 264.350 396.950, 275.587 393.617, 272.868 390.340 C 272.192 389.527, 270.768 389.089, 269.702 389.368 C 267.621 389.912, 267.627 390.572, 269.600 378.924 C 270.043 376.308, 269.756 374.899, 268.531 373.674 C 266.459 371.602, 261.156 371.502, 258.330 373.482 C 256.461 374.790, 256.071 374.790, 254.985 373.482 C 253.380 371.548, 248.038 371.584, 245.236 373.547 C 243.242 374.944, 243.084 374.944, 243.620 373.547 C 244.263 371.872, 242.560 371.723, 236 372.882 M 281.363 374.499 C 273.851 379.002, 272.202 389.226, 278.299 393.497 C 281.383 395.657, 289.793 395.423, 293.653 393.070 C 296.764 391.173, 296.812 391.173, 297.309 393.074 C 297.955 395.543, 302.628 395.628, 305.740 393.228 C 306.972 392.277, 309.305 388.350, 310.926 384.500 C 312.699 380.289, 314.554 377.360, 315.584 377.148 C 317.054 376.846, 317.196 377.338, 316.594 380.648 C 314.863 390.161, 314.776 392.025, 315.992 393.490 C 317.750 395.609, 323.995 395.345, 327 393.025 C 329.354 391.208, 329.401 390.996, 327.800 389.384 C 326.394 387.968, 325.832 387.894, 324.550 388.958 C 322.540 390.627, 322.533 388.729, 324.520 380.500 C 326.706 371.446, 327.286 372, 315.617 372 C 305.796 372, 305.202 372.118, 304.665 374.175 C 304.298 375.577, 304.700 376.791, 305.795 377.592 C 307.351 378.730, 307.369 379.195, 305.998 383.095 C 304.264 388.024, 300.391 390.082, 296.632 388.071 C 294.918 387.153, 293.673 387.239, 290.708 388.478 C 287.911 389.646, 286.450 389.776, 284.977 388.988 C 281.925 387.354, 282.630 386, 286.532 386 C 293.672 386, 299 382.206, 299 377.122 C 299 371.798, 288.479 370.233, 281.363 374.499 M 335 372.882 C 332.366 373.347, 331.421 374.057, 331.180 375.750 C 330.958 377.316, 331.371 378, 332.537 378 C 333.580 378, 334.007 378.541, 333.666 379.429 C 332.475 382.531, 331.810 388.107, 332.366 390.322 C 333.972 396.720, 350.513 396.516, 353.970 390.055 C 354.537 388.997, 355 386.768, 355 385.101 C 355 381.292, 352.754 380, 346.136 380 L 341.140 380 342.070 376.757 C 342.581 374.973, 343 373.173, 343 372.757 C 343 371.912, 340.245 371.955, 335 372.882 M 364.984 373.818 C 362.730 374.995, 360.674 377.277, 359.161 380.283 C 357.108 384.361, 356.964 385.362, 357.987 388.462 C 358.629 390.404, 360.119 392.670, 361.299 393.497 C 364.403 395.671, 372.318 395.389, 377.133 392.932 C 380.991 390.964, 381.106 390.774, 379.506 389.007 C 377.966 387.305, 377.493 387.268, 373.823 388.562 C 366.968 390.981, 364.091 387.592, 367.463 381.072 C 369.757 376.635, 372.822 376.266, 374.292 380.250 C 374.711 381.386, 375.993 382, 377.950 382 C 382.159 382, 383.233 377.941, 379.948 374.445 C 377.087 371.399, 370.174 371.110, 364.984 373.818 M 390.753 374.279 C 386.332 376.955, 384.508 379.340, 383.564 383.677 C 382.690 387.698, 385.136 392.721, 388.613 394.043 C 393.232 395.799, 400.432 395.183, 404.102 392.718 C 407.995 390.103, 409.250 385.387, 406.575 383.431 C 405.154 382.392, 405.145 382.125, 406.489 381.009 C 408.699 379.175, 408.334 375.347, 405.777 373.557 C 402.470 371.240, 395.195 371.590, 390.753 374.279 M 417.304 373.956 C 412.972 376.597, 410.887 380.068, 410.823 384.747 C 410.728 391.637, 414.425 395, 422.097 395 C 430.177 395, 435.989 389.288, 435.996 381.339 C 435.999 377.918, 435.453 376.718, 432.923 374.589 C 429.048 371.328, 422.078 371.045, 417.304 373.956 M 155.585 379.503 C 152.524 382.806, 151.230 387.897, 153.143 389.110 C 155.203 390.415, 155.877 390.214, 158.605 387.486 C 160.550 385.541, 161.049 384.143, 160.810 381.313 C 160.419 376.697, 158.728 376.111, 155.585 379.503 M 183.195 378.576 C 180.433 380.510, 179.213 386.642, 181.195 388.623 C 183.117 390.545, 185.722 389.439, 187.537 385.928 C 189.515 382.103, 189.377 379.272, 187.155 378.083 C 185.830 377.374, 184.712 377.513, 183.195 378.576 M 286.312 379.408 L 283.513 381.816 286.506 381.274 C 290.023 380.637, 292.203 379.137, 291.430 377.887 C 290.552 376.466, 289.300 376.838, 286.312 379.408 M 395.861 378.967 L 393.500 380.933 396.128 380.967 C 398.800 381.001, 401.522 378.855, 400.325 377.658 C 399.274 376.607, 398.377 376.870, 395.861 378.967 M 422.195 378.576 C 419.433 380.510, 418.213 386.642, 420.195 388.623 C 422.117 390.545, 424.722 389.439, 426.537 385.928 C 428.515 382.103, 428.377 379.272, 426.155 378.083 C 424.830 377.374, 423.712 377.513, 422.195 378.576 M 341.693 385.700 C 340.651 385.970, 340.031 386.874, 340.228 387.834 C 340.475 389.031, 341.406 389.410, 343.536 389.182 C 347.341 388.774, 348.994 387.240, 346.992 385.974 C 345.420 384.980, 344.629 384.939, 341.693 385.700 M 394.250 385.706 C 391.488 386.238, 391.358 387.586, 393.935 388.965 C 396.023 390.083, 401 388.792, 401 387.132 C 401 386.215, 398.433 384.878, 397.168 385.136 C 396.801 385.211, 395.488 385.467, 394.250 385.706 M 164 415 C 164 416.100, 163.977 417.337, 163.949 417.750 C 163.921 418.163, 165.655 418.851, 167.803 419.280 C 172.037 420.126, 175.336 423.048, 176.518 427 C 177.243 429.423, 177.205 429.446, 175.304 427.750 C 171.583 424.431, 163.043 425.980, 158.717 430.760 C 154.133 435.825, 154.821 444.822, 159.997 447.498 C 164.014 449.576, 170.854 449.386, 174.613 447.094 C 181.477 442.909, 184.977 426.553, 180.365 420.221 C 176.203 414.508, 164 410.615, 164 415 M 190.304 427.956 C 185.972 430.597, 183.887 434.068, 183.823 438.747 C 183.728 445.637, 187.425 449, 195.097 449 C 203.177 449, 208.989 443.288, 208.996 435.339 C 208.999 431.918, 208.453 430.718, 205.923 428.589 C 202.048 425.328, 195.078 425.045, 190.304 427.956 M 220.500 426.875 C 218.400 427.321, 217.404 428.186, 217.180 429.756 C 216.964 431.273, 217.375 432, 218.447 432 C 219.770 432, 219.612 432.833, 217.500 437 C 215.538 440.872, 214.434 442, 212.606 442 C 208.187 442, 206.188 448.027, 210.341 448.827 C 214.171 449.565, 217.069 447.884, 219.993 443.228 C 222.919 438.569, 222.962 438.544, 222.995 441.500 C 223.092 450.437, 227.016 451.744, 232 444.500 C 235.530 439.370, 236.309 438.921, 235.401 442.540 C 234.057 447.895, 241.533 451.117, 246.777 447.443 C 249.214 445.737, 249.391 445.166, 248.112 443.147 C 247.443 442.091, 246.786 442.044, 245.127 442.932 C 242.550 444.311, 242.551 444.344, 245 435 C 246.081 430.875, 246.973 427.387, 246.983 427.250 C 246.992 427.113, 245.254 427, 243.120 427 C 239.570 427, 238.869 427.489, 234.870 432.750 L 230.500 438.500 230.233 434.500 C 229.638 425.567, 229 425.067, 220.500 426.875 M 257.304 427.956 C 252.972 430.597, 250.887 434.068, 250.823 438.747 C 250.728 445.637, 254.425 449, 262.097 449 C 270.177 449, 275.989 443.288, 275.996 435.339 C 275.999 431.918, 275.453 430.718, 272.923 428.589 C 269.048 425.328, 262.078 425.045, 257.304 427.956 M 285.753 428.279 C 281.332 430.955, 279.508 433.340, 278.564 437.677 C 277.690 441.698, 280.136 446.721, 283.613 448.043 C 288.232 449.799, 295.432 449.183, 299.102 446.718 C 302.995 444.103, 304.250 439.387, 301.575 437.431 C 300.154 436.392, 300.145 436.125, 301.489 435.009 C 303.699 433.175, 303.334 429.347, 300.777 427.557 C 297.470 425.240, 290.195 425.590, 285.753 428.279 M 328.753 428.279 C 324.332 430.955, 322.508 433.340, 321.564 437.677 C 320.690 441.698, 323.136 446.721, 326.613 448.043 C 331.232 449.799, 338.432 449.183, 342.102 446.718 C 345.995 444.103, 347.250 439.387, 344.575 437.431 C 343.154 436.392, 343.145 436.125, 344.489 435.009 C 346.699 433.175, 346.334 429.347, 343.777 427.557 C 340.470 425.240, 333.195 425.590, 328.753 428.279 M 167.195 432.576 C 164.433 434.510, 163.213 440.642, 165.195 442.623 C 167.117 444.545, 169.722 443.439, 171.537 439.928 C 173.515 436.103, 173.377 433.272, 171.155 432.083 C 169.830 431.374, 168.712 431.513, 167.195 432.576 M 195.195 432.576 C 192.433 434.510, 191.213 440.642, 193.195 442.623 C 195.117 444.545, 197.722 443.439, 199.537 439.928 C 201.515 436.103, 201.377 433.272, 199.155 432.083 C 197.830 431.374, 196.712 431.513, 195.195 432.576 M 262.195 432.576 C 259.433 434.510, 258.213 440.642, 260.195 442.623 C 262.117 444.545, 264.722 443.439, 266.537 439.928 C 268.515 436.103, 268.377 433.272, 266.155 432.083 C 264.830 431.374, 263.712 431.513, 262.195 432.576 M 290.861 432.967 L 288.500 434.933 291.128 434.967 C 293.800 435.001, 296.522 432.855, 295.325 431.658 C 294.274 430.607, 293.377 430.870, 290.861 432.967 M 333.861 432.967 L 331.500 434.933 334.128 434.967 C 336.800 435.001, 339.522 432.855, 338.325 431.658 C 337.274 430.607, 336.377 430.870, 333.861 432.967 M 289.250 439.706 C 286.488 440.238, 286.358 441.586, 288.935 442.965 C 291.023 444.083, 296 442.792, 296 441.132 C 296 440.215, 293.433 438.878, 292.168 439.136 C 291.801 439.211, 290.488 439.467, 289.250 439.706 M 332.250 439.706 C 329.488 440.238, 329.358 441.586, 331.935 442.965 C 334.023 444.083, 339 442.792, 339 441.132 C 339 440.215, 336.433 438.878, 335.168 439.136 C 334.801 439.211, 333.488 439.467, 332.250 439.706 M 261.559 468.532 C 260.358 469.440, 257.352 470, 253.677 470 C 245.483 470, 242.042 472.286, 238.561 480.043 C 237.068 483.371, 235.595 488.522, 235.289 491.490 C 234.770 496.519, 234.940 497.093, 237.789 499.943 C 240.463 502.617, 241.541 503, 246.388 503 C 251.140 503, 252.426 502.565, 255.404 499.950 C 261.681 494.439, 262.497 486.116, 257.173 481.914 C 254.984 480.187, 253.477 479.878, 248.856 480.208 C 244.350 480.531, 243.319 480.333, 243.742 479.230 C 244.534 477.166, 248.465 476, 254.631 476 C 261.130 476, 263.460 474.944, 265.450 471.097 C 267.578 466.981, 265.458 465.583, 261.559 468.532 M 115 472.918 C 115 473.423, 114.750 474.489, 114.443 475.287 C 114.098 476.186, 114.649 476.936, 115.892 477.262 C 117.697 477.734, 117.794 478.162, 116.862 481.538 C 115.983 484.720, 116.121 485.686, 117.765 487.895 C 119.431 490.132, 120.573 490.542, 125.852 490.798 C 130.552 491.025, 132 491.453, 132 492.613 C 132 494.975, 130.074 498, 128.572 498 C 127.291 498, 126 500.049, 126 502.082 C 126 502.587, 129.600 503, 134 503 C 138.400 503, 142 502.587, 142 502.082 C 142 501.577, 142.273 500.452, 142.607 499.582 C 143.005 498.544, 142.662 498, 141.607 498 C 139.505 498, 139.570 495.285, 141.888 486.363 C 144.007 478.208, 144.596 477, 146.452 477 C 147.713 477, 149 474.938, 149 472.918 C 149 472.413, 145.448 472, 141.107 472 C 134.832 472, 133.090 472.324, 132.607 473.582 C 131.647 476.084, 131.886 477, 133.500 477 C 135.145 477, 135.318 478.159, 134.375 482.875 C 133.854 485.480, 133.285 486, 130.957 486 C 126.829 486, 125 485.026, 125 482.827 C 125 480.082, 126.813 477, 128.428 477 C 129.709 477, 131 474.951, 131 472.918 C 131 472.413, 127.400 472, 123 472 C 118.600 472, 115 472.413, 115 472.918 M 80.210 481.239 C 76.257 483.142, 77.906 485.494, 83.226 485.542 C 85.806 485.565, 88.230 485.896, 88.612 486.279 C 88.995 486.661, 86.806 488.080, 83.749 489.432 C 71.851 494.694, 72.053 503.018, 84.079 502.985 C 90.041 502.969, 94.500 501.251, 94.500 498.970 C 94.500 497.858, 93.184 497.500, 89.087 497.500 C 82.200 497.500, 81.572 495.817, 87.600 493.515 C 90.167 492.535, 93.107 490.893, 94.134 489.866 C 96.621 487.379, 96.582 482.382, 94.066 481.035 C 91.564 479.696, 83.156 479.820, 80.210 481.239 M 153.363 482.499 C 145.851 487.002, 144.202 497.226, 150.299 501.497 C 153.383 503.657, 161.793 503.423, 165.653 501.070 C 168.764 499.173, 168.812 499.173, 169.309 501.074 C 169.955 503.543, 174.628 503.628, 177.740 501.228 C 178.972 500.277, 181.305 496.350, 182.926 492.500 C 184.699 488.289, 186.554 485.360, 187.584 485.148 C 189.054 484.846, 189.196 485.338, 188.594 488.648 C 186.863 498.161, 186.776 500.025, 187.992 501.490 C 189.490 503.296, 196.096 503.504, 197.800 501.800 C 198.733 500.867, 199.267 500.867, 200.200 501.800 C 203.254 504.854, 212.100 501.829, 215.561 496.548 C 217.826 493.090, 219 493.346, 219 497.300 C 219 499.115, 219.540 501.140, 220.200 501.800 C 222.031 503.631, 228.197 503.189, 231 501.025 C 233.354 499.208, 233.401 498.996, 231.800 497.384 C 230.394 495.968, 229.832 495.894, 228.550 496.958 C 226.540 498.627, 226.533 496.729, 228.520 488.500 C 230.764 479.206, 231.384 479.773, 219.412 480.159 C 209.240 480.487, 208.728 480.610, 206.412 483.306 C 203.375 486.839, 203.379 488.470, 206.434 491.525 L 208.868 493.959 206.293 495.985 C 204.713 497.227, 203.289 497.674, 202.609 497.141 C 201.125 495.978, 197.795 496.040, 196.250 497.259 C 194.587 498.571, 194.660 496.203, 196.520 488.500 C 198.706 479.446, 199.286 480, 187.617 480 C 177.796 480, 177.202 480.118, 176.665 482.175 C 176.298 483.577, 176.700 484.791, 177.795 485.592 C 179.351 486.730, 179.369 487.195, 177.998 491.095 C 176.264 496.024, 172.391 498.082, 168.632 496.071 C 166.918 495.153, 165.673 495.239, 162.708 496.478 C 159.911 497.646, 158.450 497.776, 156.977 496.988 C 153.925 495.354, 154.630 494, 158.532 494 C 165.672 494, 171 490.206, 171 485.122 C 171 479.798, 160.479 478.233, 153.363 482.499 M 268.199 480.986 C 264.364 481.895, 264.458 481.819, 263.557 484.750 C 263.028 486.469, 263.264 487, 264.558 487 C 265.942 487, 266.124 487.592, 265.561 490.250 C 263.810 498.499, 263.801 499.658, 265.469 501.326 C 267.558 503.415, 273.315 503.495, 276.394 501.477 C 278.475 500.114, 278.850 500.114, 279.981 501.477 C 281.638 503.474, 287.934 503.435, 290.825 501.410 C 292.626 500.149, 292.853 499.528, 291.925 498.410 C 291.282 497.634, 289.728 497, 288.472 497 C 286.220 497, 286.207 496.930, 287.492 491.750 C 290.390 480.069, 290.501 481, 286.208 481 C 282.397 481, 282.370 481.029, 280.594 486.956 C 278.741 493.145, 274.520 498.922, 272.980 497.379 C 272.478 496.875, 272.889 492.979, 273.943 488.250 L 275.783 480 273.642 480.102 C 272.464 480.159, 270.015 480.556, 268.199 480.986 M 298.613 480.868 C 295.128 481.631, 292.855 486, 295.944 486 C 297.949 486, 298.002 485.464, 294.480 500.750 C 294.011 502.787, 294.331 503, 297.862 503 C 301.650 503, 301.795 502.870, 302.896 498.500 C 303.922 494.425, 304.310 494, 307.014 494 C 309.725 494, 310 494.304, 310 497.300 C 310 499.115, 310.540 501.140, 311.200 501.800 C 313.031 503.631, 319.197 503.189, 322 501.025 C 324.354 499.208, 324.401 498.996, 322.800 497.384 C 321.394 495.968, 320.832 495.894, 319.550 496.958 C 317.540 498.627, 317.533 496.729, 319.520 488.500 C 321.428 480.599, 321.558 481, 317.088 481 C 313.303 481, 313.154 481.130, 312.500 485 C 311.866 488.753, 311.614 489, 308.412 489 C 304.650 489, 304.683 489.069, 305.919 483.750 C 306.760 480.127, 306.700 480.004, 304.145 480.118 C 302.690 480.183, 300.201 480.521, 298.613 480.868 M 332.984 481.818 C 330.730 482.995, 328.674 485.277, 327.161 488.283 C 325.108 492.361, 324.964 493.362, 325.987 496.462 C 326.629 498.404, 328.119 500.670, 329.299 501.497 C 332.403 503.671, 340.318 503.389, 345.133 500.932 C 348.991 498.964, 349.106 498.774, 347.506 497.007 C 345.966 495.305, 345.493 495.268, 341.823 496.562 C 334.968 498.981, 332.091 495.592, 335.463 489.072 C 337.757 484.635, 340.822 484.266, 342.292 488.250 C 342.711 489.386, 343.993 490, 345.950 490 C 350.159 490, 351.233 485.941, 347.948 482.445 C 345.087 479.399, 338.174 479.110, 332.984 481.818 M 359.500 480.491 C 358.950 480.675, 357.316 481.085, 355.869 481.402 C 352.660 482.105, 351.070 487, 354.050 487 C 355.711 487, 355.732 487.392, 354.382 493.250 C 353.589 496.688, 352.699 500.288, 352.403 501.250 C 351.955 502.708, 352.511 503, 355.734 503 C 359.443 503, 359.698 502.783, 361.900 497.750 L 364.196 492.500 365.879 496.133 C 368.582 501.970, 369.860 503, 374.400 503 C 379.669 503, 383.660 500.501, 381.858 498.329 C 381.161 497.489, 379.617 497.031, 378.317 497.280 C 375.587 497.802, 374.749 496.928, 372.441 491.151 C 370.413 486.074, 371.480 484.600, 375.957 486.290 C 379.347 487.569, 382 486.665, 382 484.231 C 382 479.307, 374.759 478.446, 369.094 482.697 C 367.117 484.181, 365.129 485.868, 364.675 486.447 C 364.222 487.026, 364.129 485.813, 364.470 483.750 C 365.039 480.312, 364.900 480.007, 362.795 480.079 C 361.533 480.122, 360.050 480.308, 359.500 480.491 M 391.363 482.499 C 383.851 487.002, 382.202 497.226, 388.299 501.497 C 391.516 503.750, 399.505 503.406, 404.114 500.816 C 408.406 498.403, 408.696 497.823, 406.511 496.009 C 405.319 495.020, 404.215 495.097, 400.965 496.397 C 397.959 497.600, 396.401 497.750, 394.954 496.975 C 391.923 495.353, 392.641 494, 396.532 494 C 403.672 494, 409 490.206, 409 485.122 C 409 479.798, 398.479 478.233, 391.363 482.499 M 158.312 487.408 L 155.513 489.816 158.506 489.274 C 162.023 488.637, 164.203 487.137, 163.430 485.887 C 162.552 484.466, 161.300 484.838, 158.312 487.408 M 214.750 485.689 C 211.085 486.647, 213.725 489, 218.465 489 C 219.926 489, 220.958 488.269, 221.290 487 C 221.720 485.353, 221.344 485.020, 219.156 485.116 C 217.695 485.180, 215.713 485.438, 214.750 485.689 M 247.895 485.730 C 244.654 486.459, 242.246 494.103, 244.536 496.393 C 247.540 499.397, 252 495.083, 252 489.173 C 252 486.146, 250.741 485.090, 247.895 485.730 M 396.312 487.408 L 393.513 489.816 396.506 489.274 C 400.023 488.637, 402.203 487.137, 401.430 485.887 C 400.552 484.466, 399.300 484.838, 396.312 487.408 M 98.245 496.155 C 95.544 498.856, 97.561 503, 101.578 503 C 104.385 503, 106.241 500.730, 105.827 497.805 C 105.580 496.066, 104.762 495.428, 102.495 495.205 C 100.842 495.043, 98.930 495.470, 98.245 496.155 M 412.245 496.155 C 409.544 498.856, 411.561 503, 415.578 503 C 418.385 503, 420.241 500.730, 419.827 497.805 C 419.580 496.066, 418.762 495.428, 416.495 495.205 C 414.842 495.043, 412.930 495.470, 412.245 496.155" stroke="none" fill="#1c1c1c" fill-rule="evenodd"/><path d="M 233.500 15.602 C 229.650 18.637, 224.566 22.732, 222.202 24.703 C 219.839 26.674, 216.239 29.527, 214.202 31.043 C 210.978 33.444, 179.841 58.065, 170 65.996 C 155.472 77.702, 146.052 85.199, 137.016 92.246 C 131.249 96.742, 125.849 100.973, 125.016 101.649 C 114.507 110.162, 80.171 137.340, 74 142.029 C 71.525 143.910, 69.275 145.721, 69 146.054 C 68.467 146.700, 47.043 163.768, 25.241 180.914 C 17.959 186.642, 12 191.689, 12 192.129 C 12 194.546, 18.057 194.933, 56.581 194.977 C 79.045 195.003, 97.782 195.382, 98.219 195.819 C 98.656 196.256, 98.898 228.988, 98.757 268.557 L 98.500 340.500 55.500 341 C 31.850 341.275, 11.938 341.864, 11.250 342.309 C 9.615 343.367, 9.575 355.175, 11.200 356.800 C 12.115 357.715, 33.551 358, 101.578 358 C 176.537 358, 190.939 357.778, 191.910 356.608 C 192.835 355.494, 191.653 353.802, 185.970 348.108 L 178.876 341 146.938 341 L 115 341 115 260.469 C 115 184.712, 114.896 179.895, 113.250 179.219 C 112.288 178.823, 99.023 178.562, 83.774 178.639 C 56.882 178.773, 56.079 178.721, 57.060 176.889 C 57.616 175.850, 58.407 175, 58.819 175 C 59.231 175, 62.965 172.188, 67.116 168.750 C 71.268 165.313, 80.186 158.225, 86.935 153 C 98.905 143.732, 145.024 107.183, 158 96.681 C 161.575 93.788, 167.363 89.188, 170.862 86.460 C 174.361 83.732, 179.126 79.925, 181.451 78 C 183.775 76.075, 187.427 73.150, 189.565 71.500 C 191.703 69.850, 199.988 63.301, 207.976 56.946 C 215.964 50.591, 226.931 41.929, 232.346 37.696 L 242.192 30 245.346 32.202 C 247.081 33.413, 248.725 34.661, 249 34.977 C 249.796 35.888, 268.987 51.345, 271.355 52.982 C 273.456 54.434, 281.509 60.761, 297.500 73.525 C 301.900 77.037, 319.450 90.996, 336.500 104.544 C 353.550 118.092, 369.975 131.146, 373 133.553 C 393.082 149.532, 400.932 155.737, 412 164.381 C 418.875 169.751, 425.307 174.798, 426.293 175.599 C 430.190 178.762, 427.158 179.084, 400.065 178.390 L 373.296 177.704 371.050 179.950 C 368.924 182.076, 368.815 182.900, 369.022 195.348 C 369.143 202.582, 369.187 238.313, 369.121 274.750 L 369 341 354.582 341 C 339.651 341, 337 341.367, 337 343.434 C 337 344.104, 340.401 347.655, 344.558 351.324 L 352.116 357.994 412.551 357.944 C 470.659 357.895, 473.026 357.821, 473.993 356.012 C 475.518 353.163, 475.198 345.728, 473.443 343.223 L 471.887 341 428.943 341 L 386 341 386 268 C 386 199.154, 386.100 194.998, 387.750 194.972 C 388.712 194.956, 407.944 194.844, 430.486 194.722 C 469.410 194.511, 471.490 194.407, 471.827 192.658 C 472.029 191.611, 471.263 190.172, 470.053 189.324 C 468.881 188.504, 456.529 178.758, 442.603 167.666 C 428.676 156.575, 409.029 140.975, 398.943 133 C 388.856 125.025, 369.279 109.500, 355.436 98.500 C 341.594 87.500, 327.928 76.700, 325.067 74.500 C 322.205 72.300, 318.657 69.537, 317.182 68.360 C 309.857 62.517, 296.104 51.506, 293 48.999 C 291.075 47.445, 281.400 39.767, 271.500 31.937 C 261.600 24.107, 251.394 15.968, 248.821 13.851 C 246.247 11.733, 243.322 10.019, 242.321 10.042 C 241.319 10.066, 237.350 12.568, 233.500 15.602 M 264.222 82.590 C 256.420 88.775, 253.962 103.527, 259.471 111.102 C 260.830 112.971, 263.193 116.300, 264.721 118.500 L 267.500 122.500 267.789 166.750 C 267.994 198.136, 267.762 211, 266.991 211 C 266.393 211, 264.056 210.107, 261.798 209.016 C 259.540 207.926, 256.187 206.750, 254.346 206.405 C 251.086 205.794, 251 205.650, 251 200.823 C 251 195.192, 251.707 193.529, 257.125 186.408 C 259.256 183.607, 261 180.596, 261 179.717 C 261 178.837, 261.450 177.840, 262 177.500 C 263.656 176.476, 263.127 168.463, 261.090 163.709 C 258.925 158.659, 253.538 152.655, 251.714 153.259 C 250.935 153.517, 250.388 156.501, 250.187 161.580 C 249.880 169.361, 249.811 169.549, 246.261 172.262 C 242.852 174.867, 239.507 175.172, 238 173.015 C 237.725 172.621, 236.488 171.766, 235.250 171.115 C 233.186 170.028, 233 169.227, 233 161.433 C 233 151.538, 231.979 150.389, 226.740 154.385 C 223.024 157.219, 219.186 164.076, 218.317 169.434 C 217.549 174.167, 219.867 181.464, 223.536 185.861 C 228.376 191.663, 229.794 194.384, 230.158 198.575 L 230.499 202.500 225 203.151 C 221.975 203.509, 218.030 203.847, 216.234 203.901 L 212.967 204 213.234 177.250 L 213.500 150.500 217.500 150.182 C 220.395 149.953, 222.244 149.055, 224.194 146.932 C 228.049 142.736, 233.326 143.096, 235.067 147.675 C 235.948 149.993, 236.290 150.068, 244.740 149.789 L 253.500 149.500 253.779 135.637 C 253.967 126.268, 253.685 121.325, 252.907 120.387 C 252.119 119.439, 249.502 119.005, 244.628 119.015 C 237.058 119.032, 236.136 119.346, 234.398 122.500 C 233.631 123.893, 232.054 124.593, 229.202 124.805 C 225.514 125.080, 224.952 124.807, 223.528 122.055 L 221.949 119 207.724 119.062 C 187.554 119.149, 174.354 120.943, 162.202 125.248 C 150.861 129.265, 150 130.057, 150 136.464 C 150 144.117, 150.362 144.194, 161.236 138.853 C 167.092 135.977, 179.508 139.518, 185.419 145.750 C 188.553 149.054, 190.175 150, 192.706 150 C 195.249 150, 196.085 150.493, 196.526 152.250 C 196.836 153.488, 196.957 167.362, 196.795 183.082 L 196.500 211.665 192.607 215.336 C 187.953 219.724, 188.279 219.907, 179.849 208.147 L 173.651 199.500 173.049 189.500 C 172.323 177.437, 170.482 173.095, 164.143 168.495 C 159.764 165.317, 152.326 163.298, 150.750 164.858 C 150.337 165.267, 151.863 168.470, 154.142 171.977 L 158.285 178.352 156.804 182.426 C 155.369 186.377, 155.173 186.509, 150.339 186.796 L 145.354 187.092 141.113 181.046 C 138.781 177.721, 136.506 175, 136.059 175 C 132.460 175, 131.230 189.649, 134.419 194.517 C 138.455 200.676, 142.851 203.742, 150 205.384 C 155.271 206.595, 158.927 210.173, 167.883 222.888 C 177.985 237.229, 177.777 236.467, 174.031 245.500 C 171.707 251.105, 170.959 254.252, 169.989 262.500 C 169.279 268.537, 168.284 272.392, 166.966 274.210 C 165.884 275.700, 165 277.853, 165 278.995 C 165 280.136, 164.301 282.137, 163.447 283.441 C 161.007 287.164, 163.529 291.810, 171.307 297.923 C 175.341 301.093, 178.579 304.616, 179.886 307.258 C 181.040 309.591, 184.647 316.450, 187.900 322.500 L 193.815 333.500 199.078 333.512 C 201.973 333.519, 204.502 334.005, 204.698 334.593 C 204.918 335.255, 203.899 335.492, 202.018 335.216 C 197.982 334.624, 195.680 336.590, 196.515 339.916 C 197.283 342.976, 198.627 343.964, 202.050 343.985 C 204.976 344.002, 207 342.348, 207 339.939 C 207 338.762, 207.657 338.396, 209.250 338.683 C 210.816 338.965, 212.754 337.934, 215.624 335.294 C 221.783 329.628, 232.060 320.544, 235.811 317.450 C 238.926 314.881, 239.369 314.790, 243.311 315.906 C 247.506 317.094, 248.353 317.415, 255.151 320.398 C 257.159 321.279, 259.213 322, 259.714 322 C 260.215 322, 262.958 323.125, 265.808 324.500 C 273.333 328.130, 279.055 327.823, 294.054 322.985 C 300.899 320.777, 307.400 318.581, 308.500 318.105 C 309.600 317.629, 312.525 316.403, 315 315.381 C 321.777 312.583, 327.194 309.409, 331.401 305.772 C 335.034 302.631, 335.133 302.380, 333.879 299.500 C 333.160 297.850, 330.756 294.764, 328.536 292.642 C 324.132 288.432, 313.679 281, 312.162 281 C 310.978 281, 310 278.545, 310 275.573 C 310 274.328, 309.109 272.503, 308.020 271.518 C 306.930 270.532, 305.759 268.100, 305.417 266.113 C 304.226 259.200, 301.735 251.451, 298.202 243.668 C 295.954 238.716, 295.027 235.591, 295.682 235.168 C 296.251 234.801, 299.143 232.408, 302.108 229.852 C 316.380 217.548, 323.190 212, 324.020 212 C 324.520 212, 325.411 212.900, 326 214 C 326.743 215.388, 328.094 216, 330.413 216 C 334.582 216, 336.433 218.085, 335.666 221.918 C 334.754 226.481, 342.163 235.172, 345.370 233.300 C 349.990 230.603, 359.889 221.223, 359.932 219.500 C 360.011 216.365, 353.396 210, 350.059 210 C 346.370 210, 344.597 207.763, 345.341 204.044 C 345.826 201.621, 345.190 200.146, 341.783 195.796 C 332.470 183.906, 321.681 174.132, 311.741 168.582 C 306.281 165.534, 304.284 165.413, 301.250 167.944 C 297.925 170.717, 298.461 172.265, 303.833 175.403 C 310.500 179.296, 315.062 188.575, 312.777 193.591 C 311.847 195.631, 311.956 196.656, 313.357 199.027 C 314.998 201.805, 314.995 202.021, 313.291 203.422 C 312.306 204.233, 306.325 209.205, 300 214.472 L 288.500 224.047 288.237 175.274 C 287.955 123.136, 287.911 123.668, 293.059 117 C 298.470 109.992, 300 106.236, 300 99.959 C 300 96.030, 299.302 92.494, 297.967 89.653 C 295.851 85.151, 290.675 80.465, 288.979 81.513 C 288.440 81.846, 288 85.448, 288 89.519 C 288 96.307, 287.772 97.130, 285.250 99.471 C 281.291 103.144, 279.422 103.424, 275.412 100.946 C 270.926 98.173, 269.894 95.435, 270.207 87.138 C 270.499 79.374, 269.366 78.513, 264.222 82.590 M 264.254 84.762 C 259.226 89.460, 257.743 93.444, 258.175 101.096 C 258.509 107.001, 258.979 108.384, 261.780 111.694 C 263.551 113.787, 266.013 117.300, 267.250 119.500 C 269.476 123.458, 269.503 123.971, 269.807 168.377 L 270.114 213.255 267.807 212.685 C 266.538 212.371, 261.900 210.833, 257.500 209.267 L 249.500 206.420 249.171 202.460 C 248.708 196.892, 250.565 191.492, 254.422 187.188 C 259.915 181.060, 261.265 177.503, 260.810 170.364 C 260.493 165.375, 259.785 163.157, 257.454 159.850 C 252.883 153.364, 252 153.706, 252 161.968 C 252 168.933, 251.911 169.184, 248.250 172.546 C 246.188 174.441, 243.479 175.993, 242.230 175.995 C 239.111 176.002, 232.022 171.364, 231.902 169.237 C 231.848 168.282, 231.797 164.463, 231.788 160.750 C 231.778 156.291, 231.378 154, 230.609 154 C 226.458 154, 220.029 164.242, 220.010 170.884 C 219.995 176.136, 222.021 181.659, 225.468 185.758 C 227.199 187.816, 229.376 191.143, 230.307 193.151 C 232.294 197.437, 232.547 203.892, 230.750 204.453 C 230.063 204.668, 225.563 205.054, 220.750 205.311 L 212 205.779 212 177.389 L 212 149 216.892 149 C 221.206 149, 221.854 148.720, 222.379 146.627 C 223.745 141.184, 233.195 140.971, 235.805 146.324 C 237.043 148.864, 237.483 149, 244.448 149 C 250.217 149, 251.916 148.662, 252.393 147.418 C 252.727 146.548, 253 140.960, 253 135 C 253 129.040, 252.727 123.452, 252.393 122.582 C 251.915 121.336, 250.210 121, 244.368 121 C 237.420 121, 236.892 121.155, 236.020 123.446 C 234.277 128.031, 223.511 127.672, 222.287 122.988 C 221.845 121.298, 220.849 120.979, 215.633 120.860 C 195.276 120.394, 177.641 122.017, 166 125.430 C 160.681 126.989, 152.024 130.949, 151.942 131.860 C 151.911 132.212, 151.708 134.175, 151.493 136.222 C 151.083 140.116, 152.132 141.674, 154.250 140.317 C 163.688 134.270, 180.855 136.877, 187.308 145.338 C 189.542 148.266, 190.771 149, 193.444 149 C 195.569 149, 197.007 149.576, 197.393 150.582 C 197.727 151.452, 198 165.798, 198 182.463 L 198 212.762 193.398 216.881 C 190.867 219.146, 188.397 221, 187.910 221 C 187.423 221, 185.932 219.313, 184.596 217.250 C 183.260 215.188, 180.140 210.832, 177.663 207.571 C 172.463 200.724, 170.524 194.917, 171.259 188.391 C 171.907 182.647, 170.558 177.499, 167.260 173.131 C 164.530 169.515, 157.168 165.672, 153.955 166.186 C 152.175 166.471, 152.361 167.045, 155.942 172.307 C 158.287 175.752, 159.674 178.802, 159.353 179.807 C 157.772 184.758, 156.502 187.577, 155.557 188.235 C 154.976 188.639, 152.353 188.976, 149.729 188.985 C 145.184 188.999, 144.806 188.782, 141.729 184.383 C 135.906 176.057, 136.173 176.309, 134.977 178 C 134.394 178.825, 134.059 182.475, 134.233 186.110 C 134.710 196.073, 139.427 201.219, 150.619 203.988 C 152.885 204.548, 155.922 205.938, 157.369 207.076 C 160.120 209.239, 179 235.217, 179 236.838 C 179 237.352, 178.328 239.060, 177.506 240.636 C 176.685 242.211, 176.010 244.261, 176.006 245.191 C 176.003 246.121, 175.550 247.160, 175 247.500 C 174.450 247.840, 174 249.195, 174 250.512 C 174 251.829, 173.589 253.940, 173.087 255.203 C 172.585 256.466, 171.615 261.416, 170.933 266.202 C 170.161 271.621, 169.185 275.099, 168.346 275.421 C 167.606 275.705, 167 276.990, 167 278.277 C 167 279.565, 166.339 281.491, 165.532 282.559 C 164.724 283.626, 164.049 285.372, 164.032 286.439 C 164.002 288.285, 164.095 288.275, 166 286.230 C 167.100 285.050, 168 282.775, 168 281.177 C 168 279.578, 168.900 277.126, 170 275.727 C 171.100 274.329, 172.004 271.906, 172.009 270.342 C 172.028 264.651, 176.057 247.723, 179.177 240.231 C 183.259 230.423, 188.309 224.945, 197.413 220.446 C 212.582 212.949, 227.232 215.297, 242.603 227.692 C 247.785 231.870, 249.279 231.964, 245.437 227.871 C 238.426 220.400, 224.493 214, 215.242 214 C 210.889 214, 202.764 215.648, 197.500 217.598 L 195.500 218.339 197.500 216.061 C 200.064 213.142, 206.977 209.644, 214.516 207.452 C 219.282 206.067, 222.884 205.834, 232.859 206.264 L 245.273 206.800 256.178 212.236 C 262.177 215.226, 267.300 217.323, 267.564 216.896 C 268.521 215.348, 273.631 218.140, 279.642 223.495 C 290.657 233.309, 298.757 248.345, 302.002 265 C 302.699 268.575, 303.812 271.950, 304.477 272.500 C 305.141 273.050, 306.270 275.277, 306.986 277.449 C 308.263 281.327, 308.228 281.446, 305.047 284.102 C 301.320 287.213, 285.790 295.111, 279 297.348 C 277.973 297.686, 278.134 297.867, 279.508 297.921 C 282.784 298.050, 297.201 292.564, 303.892 288.643 C 307.310 286.639, 310.551 285, 311.093 285 C 315.418 285, 331 297.584, 331 301.077 C 331 303.394, 327.466 305.836, 317 310.749 C 307.173 315.362, 306.656 315.575, 298 318.601 C 293.865 320.047, 292.410 320.894, 294 320.930 C 295.375 320.962, 297.789 320.315, 299.364 319.494 C 300.940 318.672, 303.051 318, 304.055 318 C 305.060 318, 306.129 317.600, 306.432 317.111 C 306.734 316.622, 308.223 315.926, 309.741 315.564 C 313.596 314.646, 324.209 309.238, 328.508 306 C 333.085 302.553, 333.442 301.271, 330.876 297.503 C 329.569 295.584, 328.275 294.010, 328 294.006 C 327.725 294.001, 326.150 292.833, 324.500 291.409 C 322.850 289.985, 318.688 286.998, 315.250 284.771 C 310.280 281.551, 309 280.200, 309 278.175 C 309 276.775, 308.044 274.611, 306.875 273.367 C 305.707 272.124, 304.332 269.170, 303.821 266.803 C 303.309 264.436, 302.505 260.700, 302.033 258.500 C 301.561 256.300, 300.444 252.700, 299.551 250.500 C 298.659 248.300, 297.667 245.713, 297.347 244.750 C 297.028 243.787, 296.418 243, 295.992 243 C 295.566 243, 294.945 241.917, 294.613 240.593 C 294.280 239.269, 293.756 237.529, 293.448 236.726 C 292.937 235.393, 294.637 233.755, 307.523 223.163 C 308.635 222.248, 312.296 219.137, 315.659 216.250 C 322.217 210.617, 324.701 209.907, 327.402 212.892 C 328.441 214.040, 329.896 214.578, 331.105 214.262 C 332.360 213.934, 334.030 214.619, 335.624 216.116 C 337.606 217.978, 338.025 219.124, 337.566 221.419 C 337.146 223.518, 337.620 225.285, 339.240 227.658 C 343.082 233.286, 344.411 233.044, 353.032 225.146 C 355.489 222.895, 357.837 221.041, 358.250 221.027 C 360.092 220.961, 358.681 218.094, 355.071 214.569 C 352.474 212.034, 350.589 210.944, 349.515 211.356 C 348.502 211.745, 346.939 211.030, 345.371 209.462 C 343.357 207.448, 342.985 206.344, 343.513 203.939 C 344.089 201.317, 343.448 200.048, 338.482 193.978 C 327.546 180.611, 311.762 168, 305.967 168 C 304.470 168, 302.630 168.740, 301.879 169.645 C 300.701 171.065, 300.786 171.442, 302.503 172.395 C 303.597 173.003, 306.361 175.308, 308.645 177.517 C 313.378 182.096, 315.382 187.757, 314.414 193.812 C 314.021 196.268, 314.201 198.006, 314.892 198.433 C 317.818 200.242, 315.831 203.634, 308.248 209.770 C 303.987 213.219, 297.803 218.241, 294.506 220.929 C 291.210 223.617, 288.172 225.607, 287.756 225.349 C 287.340 225.092, 287 202.394, 287 174.909 C 287 119.832, 286.800 121.742, 293.407 113.678 C 299.262 106.534, 300.556 99.660, 297.447 92.218 C 295.892 88.495, 291.341 83, 289.813 83 C 289.366 83, 289 86.504, 289 90.786 L 289 98.572 284.818 101.786 C 282.518 103.554, 280.319 105, 279.931 105 C 279.543 105, 277.038 103.537, 274.363 101.750 L 269.500 98.500 269.210 90.250 C 269.050 85.713, 268.535 82, 268.065 82 C 267.596 82, 265.881 83.243, 264.254 84.762 M 217.717 208.616 C 217.379 208.955, 215.706 209.517, 214 209.866 C 209.395 210.808, 209.840 212.508, 214.602 212.165 C 218.956 211.850, 229.646 214.249, 234.057 216.529 C 242.956 221.132, 258.995 238.964, 257.572 242.674 C 257.081 243.952, 254.895 242.304, 247.635 235.185 C 227.212 215.157, 209.183 212.887, 189.355 227.848 C 183.356 232.375, 175.646 252.559, 174.135 267.691 C 173.681 272.232, 172.787 275.578, 171.708 276.770 C 170.769 277.808, 170 279.605, 170 280.764 C 170 281.922, 169.600 283.921, 169.112 285.206 C 167.347 289.846, 174.847 295.753, 188.500 300.475 C 194.659 302.606, 199.491 303.439, 209.500 304.097 C 221.489 304.886, 225.353 305.452, 235 307.836 C 238.632 308.733, 252.003 313.367, 255.500 314.940 C 261.839 317.791, 274.553 322, 276.835 322.003 C 284.386 322.012, 314.713 311.169, 324.025 305.131 C 326.211 303.713, 328 301.765, 328 300.801 C 328 298.720, 323.120 294.096, 316.479 289.884 L 311.693 286.849 306.596 289.559 C 303.793 291.050, 300.841 292.883, 300.036 293.634 C 298.758 294.826, 298.798 295, 300.344 295 C 301.319 295, 303.911 293.558, 306.104 291.796 C 309.965 288.693, 310.176 288.643, 312.769 290.217 C 316.437 292.443, 316.563 293.544, 313.288 294.768 C 311.754 295.341, 307.458 296.978, 303.739 298.405 C 300.021 299.832, 296.084 301, 294.989 301 C 293.895 301, 293 301.450, 293 302 C 293 302.550, 290.637 302.971, 287.750 302.936 L 282.500 302.872 286 301.316 C 287.925 300.460, 290.281 299.364, 291.236 298.880 C 292.191 298.396, 293.599 298, 294.364 298 C 295.129 298, 296.315 297.325, 297 296.500 C 298.571 294.607, 298.523 294.611, 291.415 296.931 C 288.162 297.993, 282.435 299.568, 278.688 300.431 C 266.640 303.206, 255.591 301.914, 266.750 299.034 C 276.137 296.612, 288.672 291.713, 294.230 288.295 C 296.282 287.033, 298.237 286, 298.576 286 C 298.914 286, 300.498 285.069, 302.096 283.932 C 305.420 281.565, 306.027 277.170, 303.393 274.536 C 302.510 273.653, 300.949 269.008, 299.925 264.215 C 298.030 255.346, 287.913 233, 285.792 233 C 285.239 233, 285.061 233.717, 285.397 234.593 C 288.222 241.953, 286.650 242.918, 281.884 236.750 C 275.750 228.814, 271.581 224.507, 267.121 221.500 C 250.359 210.200, 244.159 208, 229.071 208 C 223.165 208, 218.056 208.277, 217.717 208.616 M 250.638 226.500 C 250.955 227.325, 251.789 228, 252.492 228 C 253.195 228, 254.573 229.226, 255.555 230.724 C 256.537 232.223, 258.193 234.360, 259.236 235.474 C 262.262 238.707, 271 252.169, 271 253.598 C 271 254.923, 276.762 264, 277.603 264 C 278.839 264, 284.830 261.084, 285.362 260.223 C 286.129 258.983, 283.560 253.680, 279.683 248.500 C 274.590 241.695, 260.742 228.898, 257.844 228.319 C 256.350 228.020, 254.888 227.151, 254.595 226.388 C 254.302 225.625, 253.163 225, 252.063 225 C 250.696 225, 250.245 225.475, 250.638 226.500 M 166 289.624 C 166 291.285, 169.695 295.150, 174.020 298.013 C 176.665 299.764, 179.048 302.715, 181.323 307.056 C 187.616 319.063, 194.109 330.495, 195.307 331.678 C 196.542 332.897, 202 332.350, 202 331.006 C 202 330.588, 199.300 325.410, 196 319.500 C 190.117 308.964, 188.805 305, 191.200 305 C 193.300 305, 190.726 303.414, 185.500 301.487 C 178.702 298.981, 169.415 293.430, 167.539 290.753 C 166.693 289.544, 166 289.036, 166 289.624 M 183.798 292.179 C 182.123 293.286, 184.381 294.721, 192.499 297.709 C 196.824 299.301, 200.798 299.930, 206.727 299.959 C 214.381 299.997, 215.066 299.829, 216.563 297.544 C 218.969 293.872, 217.700 293.017, 210.716 293.604 C 207.297 293.891, 200.134 293.495, 194.798 292.724 C 189.230 291.919, 184.543 291.687, 183.798 292.179 M 250.407 292.993 C 249.861 293.539, 245.083 294.101, 239.789 294.243 C 229.665 294.513, 227.333 295.308, 230.296 297.475 C 232.392 299.007, 251.323 301.536, 252.989 300.507 C 253.613 300.121, 254.555 298.670, 255.083 297.281 C 256.548 293.428, 253.118 290.282, 250.407 292.993 M 196 296.552 C 199.719 298.225, 212.668 298.732, 214.139 297.261 C 214.597 296.803, 214.190 296.414, 213.236 296.396 C 212.281 296.378, 207.225 296.051, 202 295.670 C 192.810 294.999, 192.614 295.028, 196 296.552 M 245.601 296.105 C 242.356 296.578, 239.516 297.151, 239.289 297.377 C 238.572 298.094, 250.844 299.215, 251.947 298.533 C 253.142 297.794, 253.396 294.936, 252.250 295.122 C 251.838 295.189, 248.845 295.631, 245.601 296.105 M 195.762 305.707 C 197.006 305.946, 198.806 305.937, 199.762 305.687 C 200.718 305.437, 199.700 305.241, 197.500 305.252 C 195.300 305.263, 194.518 305.468, 195.762 305.707 M 203.414 306.861 C 203.859 307.581, 207.538 308, 213.410 308 C 222.954 308, 229.050 309.315, 228.934 311.348 C 228.898 311.982, 225.411 315.319, 221.184 318.765 C 210.083 327.816, 206 331.479, 206 332.386 C 206 332.825, 206.859 334.277, 207.910 335.612 L 209.820 338.040 221.660 327.802 C 228.172 322.171, 234.620 316.537, 235.990 315.282 C 237.359 314.027, 238.934 313.007, 239.490 313.015 C 240.576 313.030, 248.219 315.508, 251.500 316.907 C 252.600 317.377, 255.525 318.543, 258 319.500 C 265.015 322.211, 267.378 323.173, 269.033 323.990 C 272.433 325.667, 276.896 326.027, 281.083 324.961 C 283.512 324.343, 286.738 323.597, 288.250 323.305 C 289.762 323.012, 291 322.374, 291 321.887 C 291 320.797, 291.555 320.741, 285 322.500 C 276.351 324.822, 273.441 324.368, 259 318.450 C 251.575 315.407, 240.550 311.622, 234.500 310.039 C 222.529 306.907, 202.155 304.824, 203.414 306.861 M 193.799 312.143 C 195.284 315.089, 196.725 317.725, 197 318 C 197.275 318.275, 198.850 321.086, 200.500 324.247 C 202.150 327.407, 203.874 329.995, 204.332 329.997 C 205.193 330, 212.902 324.007, 216.547 320.500 C 217.691 319.400, 220.332 317.010, 222.418 315.188 C 224.504 313.367, 225.994 311.661, 225.730 311.396 C 225.465 311.132, 218.781 310.276, 210.875 309.493 C 202.969 308.711, 195.284 307.782, 193.799 307.428 L 191.097 306.785 193.799 312.143 M 263.813 335.470 C 257.049 337.333, 250.525 340.631, 242.155 346.420 C 235.124 351.282, 234.525 351.500, 228.155 351.499 C 221.632 351.498, 212.292 348.890, 210.829 346.661 C 210.461 346.099, 207.379 345.438, 203.982 345.192 C 198.396 344.788, 197.838 344.922, 198.159 346.586 C 198.576 348.754, 205.730 354.341, 213.196 358.329 C 219.399 361.642, 229.220 362.850, 235.688 361.093 C 237.991 360.468, 242.041 358.260, 244.688 356.186 C 257.156 346.417, 264.900 343.590, 279 343.661 C 293.844 343.735, 305.771 347.938, 319.473 357.920 C 323.307 360.714, 326.939 363, 327.542 363 C 328.969 363, 333.007 358.349, 332.975 356.742 C 332.938 354.916, 321.562 346.723, 313.500 342.717 C 307.027 339.501, 301.769 337.665, 291.500 335.035 C 286.031 333.635, 269.535 333.894, 263.813 335.470 M 266.353 336.596 C 258.198 338.370, 250.622 341.930, 243.321 347.418 C 232.827 355.306, 224.576 355.660, 211 348.803 C 201.204 343.856, 197.022 345.644, 204.888 351.417 C 213.378 357.650, 220.134 360.190, 228.028 360.116 C 235.685 360.044, 240.427 358.198, 246.380 352.972 C 248.269 351.313, 253.344 348.284, 257.657 346.240 C 265.398 342.574, 265.662 342.525, 278 342.513 C 295.259 342.495, 301.941 344.653, 318.654 355.640 C 323.139 358.588, 327.225 361, 327.735 361 C 329.199 361, 331.548 355.971, 330.454 355.180 C 315.317 344.228, 304.620 339.275, 290 336.450 C 281.121 334.734, 274.729 334.773, 266.353 336.596 M 198.180 339.250 C 198.509 341.562, 201.685 342.719, 204.616 341.594 C 207.276 340.573, 204.382 337, 200.895 337 C 198.320 337, 197.909 337.341, 198.180 339.250" stroke="none" fill="#e1a334" fill-rule="evenodd"/></svg>